<svg width="391" height="396" viewBox="0 0 391 396" fill="none" xmlns="http://www.w3.org/2000/svg">
<g clip-path="url(#clip0_156_1887)">
<g opacity="0.5">
<path d="M374.144 777.282C394.433 775.366 415.43 762.921 430.563 747.965C445.695 733.01 455.925 715.693 465.318 698.626C477.737 676.063 489.347 652.73 491.421 630.327C494.311 599.104 478.408 573.365 459.953 551.076C427.181 511.499 385.423 478.466 340.72 448.575C292.802 416.533 239.72 386.166 218.075 335.814C198.649 290.63 212.702 244.896 234.407 192.759C254.65 144.132 287.895 94.8993 292.101 45.9783C297.622 -18.2139 251.008 -68.0609 185.594 -86.7747C120.18 -105.488 38.8947 -96.5388 -39.2174 -74.1434" stroke="#9D81FF" stroke-width="0.547331" stroke-miterlimit="10"/>
<path d="M383.438 777.419C401.109 776.093 419.207 763.776 432.778 748.589C446.309 733.445 455.961 716.005 464.274 698.964C475.218 676.529 485.905 653.219 487.063 630.759C488.712 598.837 472.654 571.663 454.388 548.048C423.264 507.802 382.81 474.391 339.728 444.071C293.9 411.82 242.429 381.746 221.669 331.988C202.731 286.6 215.492 240.84 235.019 189.489C253.131 141.531 283.041 93.5605 285.412 46.0574C288.513 -16.0639 241.821 -64.2786 177.302 -83.293C112.598 -102.432 33.9901 -95.8404 -42.7633 -75.4044" stroke="#9D81FF" stroke-width="0.547331" stroke-miterlimit="10"/>
<path d="M392.698 777.551C407.756 776.814 422.927 764.676 434.971 749.207C446.876 733.919 455.986 716.32 463.216 699.299C472.687 677.004 482.435 653.701 482.702 631.189C483.09 598.56 466.894 569.986 448.831 545.018C419.285 504.171 380.207 470.325 338.737 439.567C294.989 407.12 245.142 377.314 225.26 328.16C206.819 282.564 218.416 236.782 235.637 186.22C251.742 138.939 278.213 92.2452 278.75 46.1419C279.449 -13.889 232.668 -60.4924 169.037 -79.8089C105.041 -99.3792 29.1066 -95.1494 -46.2957 -76.6763" stroke="#9D81FF" stroke-width="0.547331" stroke-miterlimit="10"/>
<path d="M401.906 777.674C414.357 777.525 426.577 765.618 437.132 749.809C447.402 734.426 455.983 716.626 462.135 699.618C470.145 677.476 478.929 654.168 478.33 631.605C477.441 598.26 461.113 568.32 443.263 541.973C415.227 500.587 377.584 466.259 337.719 435.054C296.041 402.431 247.82 372.874 228.803 324.331C210.858 278.526 221.225 232.725 236.221 182.953C250.265 136.34 273.375 90.9446 272.071 46.2247C270.386 -11.7021 223.494 -56.7071 160.75 -76.3286C97.4571 -96.3294 24.1812 -94.4593 -49.8777 -77.9514" stroke="#9D81FF" stroke-width="0.547331" stroke-miterlimit="10"/>
<path d="M410.967 777.738C420.821 778.172 430.088 766.546 439.167 750.335C447.811 734.898 455.866 716.858 460.937 699.848C467.491 677.861 475.292 654.534 473.837 631.919C471.646 597.854 455.182 566.576 437.55 538.834C410.942 496.969 374.773 462.131 336.488 430.474C296.852 397.701 250.244 368.385 232.064 320.463C214.605 274.446 223.736 228.617 236.506 179.637C248.488 133.679 268.254 89.5903 265.1 46.2318C261.04 -9.57748 213.995 -52.9927 152.102 -72.8996C89.4712 -93.3084 18.8204 -93.7753 -53.9309 -79.2072" stroke="#9D81FF" stroke-width="0.547331" stroke-miterlimit="10"/>
<path d="M420.022 777.815C427.277 778.83 433.602 767.533 441.198 750.873C448.239 735.429 455.753 717.107 459.74 700.087C464.852 678.266 471.64 654.909 469.352 632.242C465.839 597.456 449.243 564.861 431.845 535.703C406.605 493.407 371.97 458.026 335.259 425.905C297.653 393.002 252.677 363.9 235.32 316.609C218.351 270.377 226.239 224.524 236.789 176.333C246.707 131.028 263.149 88.2619 258.13 46.253C251.718 -7.42633 204.401 -49.1335 143.451 -69.4562C81.3949 -90.1487 13.4612 -93.0822 -57.9813 -80.455" stroke="#9D81FF" stroke-width="0.547331" stroke-miterlimit="10"/>
<path d="M429.084 777.896C433.743 779.489 437.149 768.564 443.242 751.409C448.717 735.993 455.662 717.36 458.555 700.324C462.233 678.674 467.987 655.284 464.878 632.562C460.021 597.057 443.299 563.163 426.15 532.571C402.223 489.885 369.175 453.938 334.038 421.339C298.455 388.324 255.126 359.417 238.581 312.76C222.109 266.309 228.744 220.431 237.08 173.033C244.933 128.376 258.071 86.9507 251.172 46.2723C242.433 -5.26451 194.899 -45.3884 134.814 -66.0174C73.4084 -87.1006 8.11221 -92.39 -62.0256 -81.7018" stroke="#9D81FF" stroke-width="0.547331" stroke-miterlimit="10"/>
<path d="M438.14 777.982C440.205 780.152 440.73 769.631 445.282 751.949C449.238 736.583 455.574 717.62 457.369 700.564C459.627 679.09 464.319 655.663 460.408 632.881C454.188 596.66 437.339 561.484 420.462 529.436C397.798 486.4 366.381 449.864 332.819 416.772C299.246 383.665 257.583 354.926 241.842 308.911C225.875 262.236 231.246 216.337 237.372 169.733C243.157 125.723 253.013 85.6502 244.217 46.2883C233.183 -3.09434 185.398 -41.65 126.175 -62.5814C65.416 -84.0554 2.75262 -91.6978 -66.0794 -82.9492" stroke="#9D81FF" stroke-width="0.547331" stroke-miterlimit="10"/>
<path d="M447.207 778.079C446.678 780.826 444.374 770.721 447.338 752.496C449.826 737.193 455.518 717.888 456.204 700.808C457.058 679.513 460.66 656.048 455.961 633.206C448.36 596.268 431.381 559.827 414.798 526.309C393.349 482.956 363.605 445.815 331.626 412.215C300.049 379.039 260.074 350.442 245.123 305.079C229.665 258.176 233.764 212.255 237.687 166.448C241.401 123.078 248.006 84.373 237.293 46.3152C223.998 -0.908555 175.93 -37.9056 117.567 -59.1369C57.4479 -81.0056 -2.58509 -90.9939 -70.1127 -84.184" stroke="#9D81FF" stroke-width="0.547331" stroke-miterlimit="10"/>
<path d="M456.272 778.181C453.15 781.506 448.074 771.815 449.394 753.045C450.465 737.805 455.472 718.159 455.037 701.054C454.501 679.935 456.984 656.437 451.51 633.53C442.511 595.883 425.397 558.186 409.131 523.179C388.853 479.536 360.819 441.785 330.422 407.659C300.83 374.436 262.563 345.952 248.391 301.247C233.45 254.113 236.261 208.174 237.988 163.163C239.629 120.431 243.011 83.102 230.353 46.3382C214.838 1.27716 166.447 -34.1681 108.937 -55.6977C49.4734 -77.96 -7.93209 -90.2942 -74.1584 -85.4184" stroke="#9D81FF" stroke-width="0.547331" stroke-miterlimit="10"/>
<path d="M465.354 778.291C459.641 782.189 451.85 772.902 451.472 753.597C451.175 738.412 455.458 718.431 453.894 701.301C451.982 680.36 453.326 656.831 447.086 633.852C436.672 595.5 419.416 556.56 403.493 520.05C384.343 476.144 358.053 437.777 329.243 403.107C301.615 369.861 265.084 341.466 251.678 297.422C237.257 250.052 238.773 204.099 238.31 159.881C237.869 117.787 238.068 81.835 223.436 46.3605C205.743 3.46261 156.985 -30.4326 100.331 -52.259C41.5151 -74.9185 -13.2651 -89.5913 -78.1909 -86.6536" stroke="#9D81FF" stroke-width="0.547331" stroke-miterlimit="10"/>
<path d="M474.439 778.405C466.136 782.874 455.683 773.974 453.552 754.15C451.925 739.005 455.46 718.702 452.756 701.547C449.482 680.779 449.661 657.223 442.668 634.175C430.821 595.124 413.414 554.95 397.855 516.922C379.795 472.772 355.274 433.79 328.062 398.558C302.383 365.309 267.613 336.977 254.958 293.604C241.068 245.992 241.271 200.027 238.624 156.606C236.098 115.148 233.152 80.5765 216.512 46.3879C196.685 5.65026 147.517 -26.6966 91.7151 -48.8156C33.546 -71.8714 -18.6107 -88.8805 -82.239 -87.8761" stroke="#9D81FF" stroke-width="0.547331" stroke-miterlimit="10"/>
<path d="M483.54 778.521C472.646 783.561 459.58 775.024 455.652 754.703C452.727 739.58 455.49 718.967 451.636 701.791C447.015 681.192 446.004 657.621 438.268 634.492C424.972 594.748 407.404 553.349 392.24 513.788C375.235 469.417 352.502 429.82 326.901 394.008C303.148 360.779 270.168 332.485 258.257 289.786C244.907 241.927 243.779 195.958 238.958 153.329C234.339 112.505 228.291 79.3087 209.611 46.4063C187.699 7.81789 138.068 -22.9724 83.1145 -45.3792C25.5895 -68.8318 -23.9479 -88.1736 -86.2801 -89.1003" stroke="#9D81FF" stroke-width="0.547331" stroke-miterlimit="10"/>
<path d="M492.686 778.651C479.203 784.26 463.563 776.059 457.795 755.268C453.601 740.147 455.575 719.239 450.561 702.049C444.602 681.612 442.386 658.032 433.91 634.822C419.15 594.393 401.405 551.773 386.662 510.665C370.674 466.091 349.75 425.883 325.772 389.469C303.921 356.289 272.765 328.002 261.579 285.983C248.776 237.873 246.303 191.901 239.311 150.066C232.593 109.876 223.486 78.0446 202.723 46.437C178.777 9.98379 128.634 -19.2384 74.5242 -41.9294C17.6451 -65.7817 -29.2733 -87.4492 -90.3088 -90.3054" stroke="#9D81FF" stroke-width="0.547331" stroke-miterlimit="10"/>
<path d="M501.89 778.779C485.816 784.962 467.636 777.062 459.997 755.83C454.55 740.69 455.727 719.502 449.544 702.299C442.256 682.019 438.816 658.438 429.612 635.142C413.373 594.035 395.436 550.201 381.14 507.535C366.138 462.769 347.029 421.962 324.691 384.928C304.718 351.816 275.414 323.514 264.945 282.179C252.696 233.816 248.857 187.847 239.704 146.799C230.879 107.242 218.76 76.7585 195.874 46.4621C169.937 12.1264 119.231 -15.5102 65.9604 -38.479C9.72763 -62.7273 -34.5845 -86.7167 -94.3249 -91.4964" stroke="#9D81FF" stroke-width="0.547331" stroke-miterlimit="10"/>
<path d="M511.154 778.911C492.49 785.665 471.795 778.043 462.255 756.397C455.569 741.221 455.94 719.765 448.579 702.554C439.97 682.424 435.289 658.854 425.361 635.465C407.625 593.688 389.48 548.642 375.657 504.406C361.611 459.46 344.32 418.065 323.641 380.389C305.517 347.368 278.1 319.025 268.332 278.381C256.647 229.755 251.426 183.797 240.11 143.537C229.171 104.616 214.083 75.4597 189.031 46.4895C161.153 14.2459 109.832 -11.778 57.3969 -35.0215C1.80513 -59.6663 -39.898 -85.9703 -98.3506 -92.6716" stroke="#9D81FF" stroke-width="0.547331" stroke-miterlimit="10"/>
<path d="M520.482 779.035C499.228 786.361 476.036 778.995 464.577 756.958C456.658 741.727 456.221 720.017 447.675 702.802C437.752 682.817 431.815 659.267 421.166 635.785C401.922 593.345 383.545 547.094 370.221 501.275C357.102 456.158 341.626 414.187 322.63 375.848C306.327 342.94 280.832 314.53 271.752 274.583C260.641 225.691 254.015 179.749 240.543 140.273C227.483 101.99 209.465 74.1366 182.211 46.5145C152.431 16.3387 100.451 -8.04449 48.8454 -31.5581C-6.10232 -56.5971 -45.2029 -85.2139 -102.366 -93.8305" stroke="#9D81FF" stroke-width="0.547331" stroke-miterlimit="10"/>
<path d="M529.868 779.155C506.023 787.055 480.347 779.923 466.951 757.52C457.803 742.223 456.562 720.261 446.823 703.05C435.591 683.202 428.386 659.683 417.022 636.102C396.255 593.006 377.626 545.553 364.832 498.142C352.616 452.863 338.945 410.328 321.665 371.305C307.149 338.531 283.619 310.032 275.216 270.782C264.688 221.618 256.635 175.703 241.016 137.003C225.823 99.3618 204.926 72.7786 175.424 46.5397C143.786 18.4011 91.1016 -4.31144 40.3218 -28.0893C-13.9921 -53.5209 -50.4916 -84.4471 -106.371 -94.9764" stroke="#9D81FF" stroke-width="0.547331" stroke-miterlimit="10"/>
<path d="M539.31 779.277C512.87 787.754 484.722 780.834 469.38 758.086C459.008 742.707 456.959 720.504 446.021 703.304C433.484 683.589 424.997 660.11 412.922 636.427C390.619 592.685 371.714 544.03 359.481 495.015C348.141 449.58 336.265 406.493 320.729 366.767C307.972 334.144 286.447 305.531 278.704 266.989C268.773 217.543 259.274 171.664 241.505 133.741C224.174 96.7461 200.433 71.3977 168.648 46.5736C135.183 20.4383 81.7585 -0.567836 31.803 -24.6063C-21.8713 -50.4329 -55.7785 -83.6618 -110.375 -96.1052" stroke="#9D81FF" stroke-width="0.547331" stroke-miterlimit="10"/>
<path d="M548.79 779.395C519.758 788.452 489.138 781.728 471.841 758.654C460.242 743.182 457.39 720.746 445.249 703.562C431.409 683.973 421.636 660.545 408.853 636.756C385.002 592.377 365.801 542.521 354.157 491.895C343.672 446.309 333.571 402.688 319.819 362.234C308.783 329.778 289.308 301.033 282.217 263.196C272.895 213.467 261.928 167.633 242.02 130.481C222.543 94.136 195.994 69.9835 161.892 46.6131C126.63 22.4486 72.4361 3.18308 23.298 -21.112C-29.7357 -47.334 -61.0529 -82.8677 -114.368 -97.2189" stroke="#9D81FF" stroke-width="0.547331" stroke-miterlimit="10"/>
<path d="M558.285 779.502C526.66 789.138 493.571 782.597 474.317 759.214C461.49 743.639 457.841 720.974 444.49 703.811C429.349 684.345 418.282 660.975 404.79 637.08C379.383 592.07 359.861 541.016 348.836 488.767C339.185 443.032 330.837 398.889 318.908 357.692C309.564 325.417 292.182 296.516 285.727 259.394C277.031 209.375 264.573 163.595 242.525 127.214C220.898 91.5249 191.571 68.5272 155.128 46.6502C118.092 24.4197 63.1051 6.93318 14.7823 -17.6198C-37.6132 -44.2383 -66.3393 -82.0737 -118.374 -98.3376" stroke="#9D81FF" stroke-width="0.547331" stroke-miterlimit="10"/>
<path d="M567.824 779.611C533.605 789.827 498.047 783.457 476.831 759.78C462.776 744.094 458.327 721.206 443.769 704.068C427.33 684.719 414.962 661.419 400.768 637.41C373.793 591.778 353.926 539.527 343.549 485.65C334.713 439.768 328.09 395.115 318.033 353.16C310.345 321.077 295.101 292.008 289.272 255.601C281.216 205.287 267.25 159.572 243.065 123.956C219.28 88.9301 187.202 67.0417 148.391 46.6999C109.596 26.369 53.8017 10.6952 6.28988 -14.1087C-45.4631 -41.1262 -71.6041 -81.2613 -122.362 -99.4344" stroke="#9D81FF" stroke-width="0.547331" stroke-miterlimit="10"/>
<path d="M577.373 779.707C540.557 790.505 502.53 784.297 479.353 760.336C464.064 744.532 458.822 721.422 443.052 704.317C425.316 685.082 411.639 661.86 396.747 637.736C368.196 591.492 347.956 538.041 338.263 482.525C330.225 436.499 325.294 391.348 317.161 348.616C311.093 316.735 298.035 287.483 292.823 251.793C285.428 201.176 269.924 155.539 243.607 120.686C217.663 86.3263 182.848 65.5057 141.654 46.7435C101.111 28.2773 44.4984 14.452 -2.20308 -10.6027C-53.3127 -38.0225 -76.8744 -80.4555 -126.352 -100.538" stroke="#9D81FF" stroke-width="0.547331" stroke-miterlimit="10"/>
<path d="M586.944 779.806C547.528 791.189 507.033 785.133 481.89 760.897C465.367 744.968 459.336 721.642 442.349 704.573C423.314 685.446 408.326 662.312 392.735 638.07C362.6 591.218 341.965 536.571 332.984 479.411C325.731 433.237 322.449 387.601 316.294 344.082C311.813 312.404 300.989 282.964 296.377 247.995C289.664 197.07 272.603 151.519 244.154 117.425C216.042 83.7395 178.507 63.9417 134.917 46.7987C92.6256 30.1659 35.1969 18.2208 -10.7001 -7.08184C-61.167 -34.904 -82.1456 -79.6357 -130.348 -101.63" stroke="#9D81FF" stroke-width="0.547331" stroke-miterlimit="10"/>
<path d="M596.519 779.897C554.506 791.866 511.532 785.956 484.432 761.455C466.668 745.398 459.852 721.854 441.652 704.827C421.319 685.808 405.016 662.765 388.731 638.405C357.005 590.953 335.945 535.107 327.711 476.296C321.225 429.976 319.558 383.855 315.434 339.544C312.504 308.073 303.962 278.437 299.943 244.191C293.933 192.951 275.289 147.499 244.708 114.162C214.429 81.153 174.174 62.3434 128.186 46.8533C84.1458 32.0206 25.9027 21.9874 -19.1891 -3.56171C-69.0083 -31.7894 -87.4099 -78.8201 -134.333 -102.725" stroke="#9D81FF" stroke-width="0.547331" stroke-miterlimit="10"/>
<path d="M606.127 779.986C561.514 792.541 516.061 786.77 486.999 762.015C467.993 745.823 460.392 722.066 440.975 705.085C419.343 686.166 401.726 663.224 384.742 638.744C351.416 590.7 329.907 533.655 322.451 473.187C316.722 426.72 316.619 380.12 314.589 335.014C313.183 303.747 306.96 273.913 303.523 240.394C298.238 188.835 277.983 143.492 245.273 110.908C212.824 78.5834 169.851 60.7172 121.463 46.9243C75.6613 33.8663 16.6162 25.7706 -27.6762 -0.0221032C-76.8467 -28.6589 -92.6719 -77.9845 -138.322 -103.803" stroke="#9D81FF" stroke-width="0.547331" stroke-miterlimit="10"/>
<path d="M615.923 780.06C568.703 793.208 520.759 787.579 489.735 762.576C469.478 746.251 461.094 722.28 440.454 705.349C417.518 686.534 398.577 663.701 380.896 639.095C345.956 590.469 323.964 532.225 317.31 470.093C312.319 423.475 313.731 376.394 313.854 330.49C313.937 299.415 310.079 269.392 307.207 236.599C302.668 184.714 280.773 139.491 245.927 107.657C211.296 76.0246 165.59 59.0767 114.8 47.0142C67.2165 35.7125 7.3734 29.5874 -36.1248 3.55371C-84.6527 -25.4888 -97.9116 -77.1078 -142.292 -104.835" stroke="#9D81FF" stroke-width="0.547331" stroke-miterlimit="10"/>
<path d="M625.723 780.129C575.895 793.871 525.453 788.381 492.467 763.136C470.954 746.674 461.793 722.489 439.931 705.612C415.689 686.898 395.423 664.181 377.048 639.448C340.488 590.247 317.988 530.799 312.171 467.002C307.907 420.232 310.791 372.663 313.127 325.967C314.673 295.075 313.22 264.867 310.909 232.802C307.145 180.586 283.582 135.491 246.595 104.409C209.785 73.4743 161.334 57.412 108.149 47.1105C58.7638 37.5433 -1.85456 33.4053 -44.5622 7.13427C-92.4416 -22.3183 -103.136 -76.2327 -146.246 -105.869" stroke="#9D81FF" stroke-width="0.547331" stroke-miterlimit="10"/>
<path d="M635.514 780.2C583.072 794.537 530.134 789.179 495.187 763.698C472.418 747.095 462.476 722.702 439.391 705.88C413.84 687.265 392.25 664.666 373.178 639.807C334.993 590.036 311.953 529.385 307.008 463.916C303.461 416.989 307.769 368.925 312.38 321.449C315.365 290.726 316.357 260.345 314.592 229.012C311.633 176.459 286.37 131.505 247.248 101.169C208.255 70.9359 157.044 55.735 101.482 47.2171C50.2751 39.368 -11.0125 37.1486 -53.0186 10.7251C-100.154 -19.2349 -108.376 -75.3481 -150.22 -106.898" stroke="#9D81FF" stroke-width="0.547331" stroke-miterlimit="10"/>
<path d="M645.315 780.27C590.261 795.204 534.816 789.975 497.909 764.261C473.876 747.518 463.161 722.913 438.851 706.151C411.992 687.629 389.075 665.159 369.309 640.169C329.495 589.833 305.889 527.977 301.848 460.835C299.013 413.747 304.697 365.171 311.641 316.935C316.041 286.359 319.515 255.826 318.289 225.221C316.169 172.328 289.085 127.603 247.911 97.9321C206.644 68.485 152.743 54.0399 94.8178 47.3277C41.7693 41.18 -20.2745 41.0028 -61.4695 14.3168C-107.98 -16.0298 -113.609 -74.467 -154.184 -107.927" stroke="#9D81FF" stroke-width="0.547331" stroke-miterlimit="10"/>
<path d="M655.113 780.346C597.443 795.873 539.486 790.774 500.626 764.83C475.328 747.94 463.883 723.082 438.307 706.426C410.189 687.949 385.827 665.706 365.432 640.539C323.849 589.738 299.787 526.581 296.68 457.762C294.546 410.51 301.569 361.401 310.898 312.43C316.701 281.98 322.686 251.316 321.985 221.44C320.737 168.201 291.934 123.593 248.576 94.704C205.17 65.9276 148.423 52.3404 88.1507 47.4489C33.2334 42.9923 -29.5432 44.8685 -69.9274 17.9172C-115.81 -12.8186 -118.849 -73.5759 -158.152 -108.952" stroke="#9D81FF" stroke-width="0.547331" stroke-miterlimit="10"/>
<path d="M664.913 780.417C604.626 796.539 544.153 791.565 503.338 765.395C476.772 748.362 464.506 723.34 437.753 706.701C408.27 688.366 382.696 666.163 361.546 640.906C318.459 589.46 293.644 525.184 291.5 454.69C290.059 407.269 298.382 357.604 310.151 307.922C317.339 277.57 325.866 246.804 325.681 217.655C325.345 164.066 294.784 119.582 249.236 91.4751C203.689 63.3681 144.079 50.6282 81.4767 47.5726C24.6671 44.7971 -38.8172 48.7346 -78.3887 21.5189C-123.645 -9.60729 -124.085 -72.6866 -162.117 -109.981" stroke="#9D81FF" stroke-width="0.547331" stroke-miterlimit="10"/>
<path d="M389.577 664.022C455.322 622.303 509.165 564.366 538.841 503.407C547.286 486.064 553.921 467.829 551.468 451.806C544.374 405.507 477.582 394.218 433.734 379.701C380.811 362.18 326.876 345.896 277.157 324.189C249.243 312.003 220.666 294.978 221.142 265.488C221.626 235.624 251.378 205.211 276.08 177.08C304.864 144.301 329.666 108.72 341.185 72.5215C352.702 36.3267 349.665 -0.618704 326.305 -24.0916C308.014 -42.4738 279.114 -51.3449 249.66 -57.4711C172.27 -73.5693 85.3684 -73.6167 -3.07319 -57.613" stroke="#9D81FF" stroke-width="0.547331" stroke-miterlimit="10"/>
<path d="M393.077 663.324C456.667 622.968 506.735 566.54 536.047 504.953C544.23 487.758 550.791 469.73 548.509 453.855C541.941 407.874 477.756 395.798 434.948 380.817C389.307 364.843 342.379 350.077 297.828 331.479C292.338 329.2 286.891 326.868 281.493 324.472C253.993 312.27 225.822 295.419 225.745 266.527C225.653 237.262 253.858 207.491 277.196 179.934C304.352 147.801 327.676 112.964 338.223 77.516C348.706 42.0258 345.192 5.78647 322.164 -17.4704C306.519 -33.2781 283.253 -42.2094 258.709 -48.5343C254.912 -49.5157 251.07 -50.4087 247.25 -51.301C171.454 -69.0066 89.9033 -71.7873 4.36536 -56.3213" stroke="#9D81FF" stroke-width="0.547331" stroke-miterlimit="10"/>
<path d="M396.563 662.646C457.994 623.651 504.299 568.731 533.24 506.513C541.169 489.464 547.646 471.645 545.538 455.914C539.495 410.252 477.916 397.394 436.148 381.947C391.948 365.598 345.984 350.67 301.897 331.795C296.495 329.508 291.132 327.17 285.814 324.773C258.729 312.557 230.966 295.877 230.335 267.584C229.666 238.915 256.328 209.784 278.299 182.801C303.826 151.312 325.679 117.218 335.25 82.516C344.703 47.7275 340.712 12.1969 318.014 -10.8443C302.565 -26.5382 279.834 -35.6173 255.969 -42.2152C252.276 -43.2409 248.527 -44.1617 244.832 -45.1246C170.614 -64.458 94.428 -69.9426 11.7951 -55.0147" stroke="#9D81FF" stroke-width="0.547331" stroke-miterlimit="10"/>
<path d="M400.033 661.962C459.312 624.329 501.866 570.925 530.43 508.071C538.111 491.171 544.503 473.558 542.566 457.975C537.05 412.632 478.073 398.998 437.347 383.076C394.587 366.36 349.678 351.147 305.959 332.109C300.655 329.801 295.367 327.47 290.132 325.07C263.462 312.839 236.106 296.332 234.921 268.638C233.679 240.567 258.85 212.099 279.404 185.667C303.371 154.847 323.794 121.468 332.288 87.5194C340.816 53.4259 336.245 18.6095 313.877 -4.21246C298.625 -19.7928 276.426 -29.0167 253.24 -35.8933C249.65 -36.9653 245.995 -37.9122 242.427 -38.9437C169.773 -59.9297 98.9592 -68.0983 19.2267 -53.7048" stroke="#9D81FF" stroke-width="0.547331" stroke-miterlimit="10"/>
<path d="M403.491 661.279C460.618 625.008 499.437 573.125 527.621 509.632C535.057 492.881 541.36 475.475 539.596 460.04C534.608 415.016 478.234 400.611 438.543 384.209C397.223 367.132 353.304 351.704 310.017 332.423C304.804 330.101 299.596 327.769 294.445 325.367C268.186 313.122 241.239 296.783 239.504 269.688C237.69 242.212 261.34 214.391 280.515 188.528C302.881 158.359 321.848 125.715 329.34 92.5175C336.875 59.1233 331.797 25.0191 309.762 2.41087C294.705 -13.056 273.039 -22.4272 250.531 -29.5791C247.047 -30.6955 243.486 -31.6736 240.039 -32.771C168.935 -55.4361 103.497 -66.2619 26.663 -52.408" stroke="#9D81FF" stroke-width="0.547331" stroke-miterlimit="10"/>
<path d="M406.908 660.574C461.895 625.665 496.991 575.3 524.791 511.168C531.985 494.569 538.196 477.369 536.606 462.081C532.143 417.378 478.364 402.213 439.701 385.325C399.809 367.899 356.88 352.252 314.022 332.725C308.9 330.391 303.772 328.057 298.703 325.652C272.855 313.392 246.311 297.227 244.024 270.732C241.638 243.852 263.771 216.676 281.568 191.382C302.341 161.862 319.85 129.951 326.342 97.5066C332.885 64.8096 327.299 31.4178 305.591 9.0275C290.731 -6.32688 269.593 -15.8443 247.759 -23.271C244.377 -24.4336 240.907 -25.4415 237.587 -26.6056C168.016 -50.975 107.952 -64.4264 34.0036 -51.1091" stroke="#9D81FF" stroke-width="0.547331" stroke-miterlimit="10"/>
<path d="M410.319 659.875C463.169 626.327 494.557 577.485 521.963 512.712C528.921 496.263 535.038 479.268 533.62 464.129C529.681 419.749 478.491 403.829 440.86 386.449C402.394 368.681 360.45 352.807 318.02 333.035C312.986 330.69 307.943 328.353 302.95 325.948C277.513 313.673 251.372 297.68 248.534 271.782C245.575 245.501 266.195 218.968 282.617 194.243C301.797 165.369 317.85 134.194 323.347 102.504C328.897 70.5018 322.809 37.8248 301.424 15.6521C286.759 0.413588 266.149 -9.25014 244.989 -16.953C241.711 -18.16 238.336 -19.2024 235.139 -20.4283C167.091 -46.5283 112.4 -62.5735 41.3319 -49.7948" stroke="#9D81FF" stroke-width="0.547331" stroke-miterlimit="10"/>
<path d="M413.768 659.173C464.486 626.986 492.185 579.665 519.191 514.247C525.917 497.953 531.896 481.173 530.69 466.17C527.158 422.146 478.67 405.45 442.064 387.572C405.016 369.477 364.057 353.37 322.051 333.349C317.107 330.992 312.143 328.654 307.232 326.247C282.199 313.959 256.46 298.137 253.074 272.839C249.544 247.153 268.654 221.261 283.705 197.108C301.295 168.879 315.896 138.435 320.395 107.5C324.951 76.1925 318.362 44.2322 297.304 22.2767C282.831 7.15276 262.714 -2.61373 242.261 -10.6361C239.082 -11.8842 235.803 -12.9645 232.727 -14.252C166.194 -42.1108 116.871 -60.7174 48.6725 -48.4707" stroke="#9D81FF" stroke-width="0.547331" stroke-miterlimit="10"/>
<path d="M417.304 658.487C465.898 627.654 489.919 581.852 516.517 515.784C523.017 499.641 528.889 483.067 527.861 468.209C524.838 424.51 478.934 407.081 443.349 388.701C407.705 370.29 367.725 353.948 326.144 333.678C321.287 331.31 316.404 328.97 311.573 326.559C286.943 314.259 261.6 298.613 257.66 273.912C253.558 248.824 271.159 223.566 284.839 199.985C300.843 172.395 313.986 142.686 317.498 112.503C321.059 81.8876 313.966 50.6419 293.229 28.9067C278.945 13.8982 259.348 3.9913 239.567 -4.30597C236.487 -5.5965 233.304 -6.71631 230.352 -8.0613C165.324 -37.7089 121.353 -58.833 56.0163 -47.1131" stroke="#9D81FF" stroke-width="0.547331" stroke-miterlimit="10"/>
<path d="M420.838 657.795C467.306 628.316 487.666 584.036 513.849 517.316C520.123 501.326 525.886 484.956 525.035 470.246C522.521 426.874 479.2 408.719 444.636 389.827C410.396 371.111 371.399 354.524 330.235 334.006C325.466 331.628 320.663 329.285 315.913 326.872C291.688 314.562 266.737 299.088 262.249 274.986C257.572 250.495 273.668 225.872 285.978 202.861C300.397 175.908 312.085 146.931 314.606 117.505C317.169 87.5807 309.577 57.0536 289.163 35.5353C275.071 20.6409 255.989 10.5965 236.881 2.02298C233.903 0.686688 230.816 -0.4707 227.983 -1.8736C164.469 -33.3413 125.842 -56.9505 63.3632 -45.7536" stroke="#9D81FF" stroke-width="0.547331" stroke-miterlimit="10"/>
<path d="M424.364 657.106C468.712 628.98 485.418 586.22 511.173 518.849C517.226 503.012 522.881 486.845 522.203 472.284C520.2 429.236 479.455 410.371 445.916 390.957C413.069 371.948 375.057 355.107 334.32 334.335C329.638 331.949 324.914 329.601 320.243 327.189C296.418 314.868 271.863 299.569 266.824 276.063C261.577 252.168 276.167 228.176 287.108 205.738C299.942 179.419 310.173 151.179 311.708 122.505C313.273 93.2703 305.182 63.4599 285.088 42.1617C271.185 27.3828 252.623 17.1982 234.185 8.34818C231.31 6.96807 228.316 5.7693 225.602 4.31191C163.605 -29.0109 130.313 -55.0637 70.6906 -44.3946" stroke="#9D81FF" stroke-width="0.547331" stroke-miterlimit="10"/>
<path d="M427.9 656.418C470.13 629.645 483.195 588.408 508.517 520.383C514.356 504.699 519.892 488.736 519.391 474.323C517.9 431.602 479.725 412.032 447.213 392.09C415.758 372.797 378.73 355.698 338.418 334.67C333.823 332.273 329.18 329.923 324.589 327.509C301.167 315.176 277.005 300.051 271.418 277.144C265.6 253.843 278.684 230.483 288.258 208.619C299.509 182.931 308.279 155.425 308.832 127.51C309.399 98.9624 300.815 69.8707 281.038 48.7943C267.325 34.1309 249.282 23.8061 231.514 14.6817C228.741 13.2559 225.842 12.0177 223.249 10.5063C162.787 -24.7102 134.808 -53.1665 78.0414 -43.0225" stroke="#9D81FF" stroke-width="0.547331" stroke-miterlimit="10"/>
<path d="M431.431 655.728C471.54 630.309 480.985 590.592 505.86 521.912C511.485 506.382 516.906 490.622 516.577 476.357C515.6 433.961 479.986 413.702 448.504 393.222C418.429 373.659 382.393 356.289 342.508 335.004C338 332.598 333.437 330.245 328.926 327.827C305.906 315.482 282.201 300.506 275.999 278.222C269.673 255.491 281.187 232.784 289.397 211.497C299.062 186.437 306.375 159.669 305.951 132.507C305.514 104.648 296.439 76.2728 276.985 55.4153C263.46 40.8674 245.936 30.4007 228.837 21.0021C226.164 19.534 223.366 18.2482 220.889 16.6858C161.981 -20.4593 139.297 -51.2818 85.3807 -41.6608" stroke="#9D81FF" stroke-width="0.547331" stroke-miterlimit="10"/>
<path d="M434.956 655.036C472.949 630.969 478.783 592.771 503.202 523.438C508.618 508.063 513.919 492.503 513.765 478.39C513.302 436.32 480.243 415.381 449.799 394.354C421.098 374.532 386.059 356.884 346.602 335.339C342.181 332.924 337.698 330.567 333.268 328.147C310.647 315.791 287.34 300.986 280.588 279.302C273.694 257.163 283.697 235.082 290.549 214.372C298.628 189.939 304.483 163.908 303.082 137.502C301.641 110.329 292.078 82.6748 272.942 62.0358C259.609 47.602 242.6 36.995 226.171 27.3245C223.6 25.8108 220.9 24.4788 218.537 22.8688C161.206 -16.2442 143.788 -49.3876 92.7232 -40.2902" stroke="#9D81FF" stroke-width="0.547331" stroke-miterlimit="10"/>
<path d="M438.488 654.35C474.363 631.634 476.606 594.956 500.553 524.969C505.759 509.749 510.942 494.392 510.96 480.427C511.016 438.683 480.501 417.077 451.098 395.492C423.762 375.421 389.724 357.49 350.697 335.681C346.36 333.257 341.96 330.897 337.607 328.477C315.388 316.108 292.477 301.477 285.173 280.389C277.709 258.843 286.205 237.386 291.696 217.254C298.189 193.443 302.582 168.152 300.21 142.501C297.762 116.012 287.714 89.0787 268.897 68.6582C255.753 54.34 239.261 43.5914 223.501 33.6474C221.033 32.09 218.43 30.7119 216.185 29.053C160.461 -12.0664 148.28 -47.4871 100.06 -38.9126" stroke="#9D81FF" stroke-width="0.547331" stroke-miterlimit="10"/>
<path d="M442.01 653.656C475.773 632.289 474.433 597.129 497.902 526.489C502.907 511.425 507.967 496.268 508.156 482.453C508.727 441.034 480.747 418.778 452.393 396.624C426.411 376.32 393.379 358.093 354.785 336.019C350.535 333.586 346.213 331.22 341.942 328.8C320.124 316.419 297.608 301.96 289.752 281.473C281.72 260.519 288.703 239.685 292.837 220.131C297.742 196.941 300.675 172.391 297.336 147.494C293.876 121.692 283.348 95.4744 264.853 75.2749C251.897 61.0724 235.923 50.1824 220.835 39.9657C218.468 38.3628 215.968 36.9338 213.835 35.2309C159.751 -7.93097 152.769 -45.5879 107.398 -37.5328" stroke="#9D81FF" stroke-width="0.547331" stroke-miterlimit="10"/>
<path d="M445.555 652.974C477.203 632.958 472.301 599.309 495.277 528.016C500.083 513.106 505.014 498.151 505.377 484.488C506.466 443.396 481.007 420.501 453.715 397.766C429.075 377.241 397.059 358.711 358.9 336.366C354.735 333.927 350.498 331.554 346.304 329.131C324.883 316.739 302.762 302.453 294.357 282.561C285.755 262.199 291.224 241.985 294.01 223.009C297.323 200.438 298.798 176.628 294.499 152.483C290.025 127.366 279.022 101.866 260.842 81.8866C248.078 67.8002 232.62 56.7673 218.197 46.2793C215.932 44.6309 213.535 43.153 211.511 41.4057C159.11 -3.83851 157.284 -43.6876 114.755 -36.1508" stroke="#9D81FF" stroke-width="0.547331" stroke-miterlimit="10"/>
<path d="M449.081 652.28C478.618 633.611 470.164 601.476 492.638 529.53C497.246 514.776 502.051 500.021 502.586 486.508C504.2 445.743 481.246 422.223 455.023 398.896C431.713 378.162 400.722 359.322 362.998 336.705C358.917 334.259 354.762 331.881 350.648 329.456C329.628 317.052 307.896 302.938 298.943 283.646C289.768 263.878 293.724 244.282 295.163 225.884C296.88 203.93 296.898 180.861 291.638 157.468C286.146 133.035 274.669 108.251 256.808 88.492C244.233 74.5215 229.293 63.3464 215.537 52.5896C213.373 50.8959 211.081 49.3657 209.168 47.5779C158.491 0.215188 161.778 -41.7802 122.09 -34.7635" stroke="#9D81FF" stroke-width="0.547331" stroke-miterlimit="10"/>
<path d="M452.631 651.6C480.058 634.277 468.071 603.647 490.022 531.054C494.436 516.455 499.112 501.902 499.817 488.539C501.951 448.101 481.491 423.97 456.349 400.043C434.357 379.111 404.396 359.954 367.113 337.061C363.116 334.606 359.043 332.224 355.007 329.799C334.386 317.384 313.045 303.443 303.544 284.746C293.799 265.57 296.234 246.59 296.331 228.77C296.446 207.432 295.009 185.107 288.795 162.461C282.279 138.716 270.335 114.645 252.794 95.1061C240.407 81.2515 225.985 69.9327 212.896 58.9095C210.834 57.1724 208.649 55.5867 206.843 53.758C157.94 4.24169 166.289 -39.8618 129.441 -33.36" stroke="#9D81FF" stroke-width="0.547331" stroke-miterlimit="10"/>
<path d="M456.173 650.911C481.487 634.932 465.983 605.807 487.404 532.565C491.629 518.118 496.171 503.769 497.047 490.557C499.707 450.446 481.72 425.721 457.674 401.178C436.987 380.061 408.065 360.578 371.222 337.409C367.31 334.948 363.319 332.561 359.362 330.134C339.139 317.709 318.19 303.941 308.141 285.839C297.822 267.254 298.739 248.891 297.499 231.646C296.008 210.925 293.116 189.337 285.952 167.439C278.409 144.381 266 121.021 248.776 101.703C236.576 87.9641 222.676 76.5026 210.248 65.2112C208.288 63.4288 206.211 61.7916 204.508 59.9217C157.433 8.2194 170.788 -37.9516 136.779 -31.9641" stroke="#9D81FF" stroke-width="0.547331" stroke-miterlimit="10"/>
<path d="M459.736 650.226C482.942 635.589 463.937 607.964 484.809 534.073C488.846 519.78 493.253 505.633 494.298 492.571C497.482 452.788 481.951 427.48 459.021 402.315C439.623 381.025 411.753 361.211 375.351 337.762C371.523 335.294 367.613 332.9 363.737 330.472C343.912 318.036 323.35 304.445 312.752 286.937C301.863 268.941 301.25 251.198 298.678 234.523C295.576 214.418 291.231 193.571 283.123 172.416C274.55 150.046 261.68 127.396 244.772 108.297C232.761 94.6735 219.378 83.0692 207.614 71.514C205.755 69.6866 203.788 67.9945 202.19 66.0873C157.003 12.1659 175.305 -36.0341 144.132 -30.5571" stroke="#9D81FF" stroke-width="0.547331" stroke-miterlimit="10"/>
<path d="M463.311 649.543C484.407 636.248 461.916 610.117 482.227 535.58C486.078 521.443 490.349 507.496 491.564 494.586C495.277 455.129 482.177 429.254 460.379 403.455C442.254 382.001 415.445 361.85 379.492 338.118C375.745 335.645 371.919 333.245 368.122 330.814C348.695 318.367 328.519 304.952 317.376 288.037C305.91 270.635 303.77 253.508 299.869 237.4C295.151 217.916 289.355 197.805 280.304 177.39C270.692 155.71 257.367 133.766 240.778 114.888C228.955 101.38 216.091 89.634 204.988 77.8118C203.232 75.9413 201.376 74.1912 199.88 72.2463C156.641 16.0782 179.828 -34.1131 151.493 -29.1457" stroke="#9D81FF" stroke-width="0.547331" stroke-miterlimit="10"/>
<path d="M466.897 648.862C485.885 636.905 459.924 612.264 479.653 537.083C483.323 523.098 487.455 509.352 488.837 496.595C493.078 457.464 482.39 431.04 461.741 404.594C444.872 382.987 419.134 362.496 383.631 338.479C379.968 335.999 376.224 333.594 372.506 331.161C353.474 318.706 333.686 305.466 321.995 289.145C309.955 272.334 306.281 255.825 301.058 240.284C294.716 221.42 287.468 202.046 277.48 182.366C266.828 161.378 253.053 140.135 236.777 121.481C225.14 108.09 212.798 96.1989 202.355 84.1159C200.7 82.2004 198.957 80.3942 197.561 78.4151C156.336 19.9737 184.34 -32.1777 158.841 -27.7173" stroke="#9D81FF" stroke-width="0.547331" stroke-miterlimit="10"/>
<path d="M470.497 648.183C487.375 637.563 457.965 614.404 477.097 538.582C480.585 524.749 484.579 511.207 486.127 498.601C490.901 459.797 482.596 432.833 463.12 405.732C447.491 383.981 422.838 363.145 387.786 338.841C384.205 336.357 380.544 333.945 376.903 331.512C358.268 319.047 338.862 305.986 326.626 290.254C314.009 274.035 308.8 258.145 302.256 243.164C294.288 224.923 285.589 206.281 274.665 187.337C262.967 167.045 248.744 146.5 232.782 128.066C221.33 114.792 209.51 102.757 199.726 90.412C198.172 88.4518 196.545 86.5901 195.247 84.5731C156.101 23.8373 188.859 -30.2487 166.193 -26.2914" stroke="#9D81FF" stroke-width="0.547331" stroke-miterlimit="10"/>
<path d="M474.114 647.502C488.883 638.215 456.039 616.538 474.555 540.073C477.868 526.391 481.717 513.05 483.432 500.597C488.737 462.121 482.791 434.631 464.513 406.862C450.106 384.976 426.551 363.792 391.954 339.198C388.454 336.709 384.877 334.29 381.316 331.856C363.079 319.384 344.056 306.501 331.272 291.359C318.077 275.731 311.329 260.465 303.467 246.038C293.87 228.424 283.716 210.514 271.864 192.294C259.114 172.701 244.446 152.849 228.801 134.636C217.538 121.478 206.237 109.303 197.114 96.6947C195.663 94.6884 194.152 92.7694 192.949 90.7179C155.95 27.6664 193.392 -28.3262 173.561 -24.8708" stroke="#9D81FF" stroke-width="0.547331" stroke-miterlimit="10"/>
<path d="M477.745 646.83C490.406 638.873 454.142 618.673 472.021 541.565C475.158 528.033 478.862 514.894 480.744 502.59C486.582 464.438 482.963 436.432 465.904 407.991C452.699 385.976 430.252 364.444 396.113 339.561C392.693 337.067 389.203 334.642 385.717 332.206C367.872 319.728 349.19 307.054 335.899 292.472C322.083 277.469 313.833 262.795 304.657 248.917C293.424 231.934 281.821 214.753 269.036 197.259C255.231 178.367 240.119 159.207 224.785 141.216C213.707 128.175 202.928 115.856 194.46 102.989C193.111 100.94 191.718 98.9621 190.609 96.8776C155.825 31.4957 197.879 -26.3891 180.878 -23.4322" stroke="#9D81FF" stroke-width="0.547331" stroke-miterlimit="10"/>
<path d="M481.361 646.163C491.909 639.524 452.233 620.822 469.414 543.028C472.372 529.637 475.922 516.694 477.963 504.534C484.315 466.689 482.982 438.166 467.154 409.045C455.122 386.905 433.782 365.037 400.088 339.878C396.749 337.384 393.338 334.951 389.931 332.518C372.472 320.042 354.167 307.559 340.316 293.575C325.913 279.168 316.111 265.126 305.608 251.798C292.729 235.456 279.658 219.008 265.938 202.239C251.062 184.057 235.497 165.589 220.466 147.829C209.565 134.912 199.301 122.453 191.479 109.328C190.231 107.235 188.958 105.201 187.939 103.08C155.404 35.3569 201.97 -24.4663 187.803 -21.9932" stroke="#9D81FF" stroke-width="0.547331" stroke-miterlimit="10"/>
<path d="M484.989 645.483C493.429 640.165 450.356 622.961 466.823 544.49C469.603 531.241 473 518.489 475.199 506.477C482.071 468.934 482.991 439.902 468.423 410.094C457.543 387.836 437.325 365.628 404.076 340.189C400.813 337.694 397.487 335.255 394.155 332.825C377.082 320.351 359.152 308.057 344.737 294.673C329.751 280.864 318.391 267.459 306.563 254.682C292.036 238.985 277.5 223.272 262.844 207.224C246.894 189.762 230.883 171.979 216.152 154.447C205.427 141.652 195.678 129.055 188.504 115.671C187.357 113.532 186.203 111.444 185.274 109.286C155.053 39.2086 206.069 -22.5512 194.734 -20.5623" stroke="#9D81FF" stroke-width="0.547331" stroke-miterlimit="10"/>
<path d="M488.625 644.796C494.954 640.803 448.504 625.098 464.238 545.951C466.845 532.844 470.108 520.287 472.44 508.42C479.912 471.177 482.976 441.64 469.694 411.139C459.95 388.756 440.863 366.212 408.064 340.494C404.88 337.996 401.635 335.553 398.38 333.123C381.689 320.652 364.139 308.547 349.161 295.763C333.591 282.551 320.671 269.791 307.522 257.561C291.347 242.517 275.34 227.543 259.75 212.214C242.721 195.475 226.263 178.377 211.833 161.075C201.286 148.4 192.084 135.646 185.52 122.021C184.48 119.836 183.443 117.692 182.6 115.502C154.759 43.0606 210.156 -20.6354 201.654 -19.1379" stroke="#9D81FF" stroke-width="0.547331" stroke-miterlimit="10"/>
<path d="M492.252 644.093C496.472 641.427 446.662 627.225 461.641 547.41C464.075 534.441 467.176 522.084 469.672 510.362C477.648 473.426 482.923 443.381 470.96 412.175C462.332 389.669 444.388 366.793 412.046 340.785C408.938 338.286 405.778 335.837 402.599 333.406C386.292 320.937 369.116 309.02 353.575 296.837C337.421 284.224 322.942 272.115 308.465 260.431C290.641 246.047 273.163 231.812 256.636 217.2C238.529 201.193 221.624 184.776 207.493 167.701C197.12 155.149 188.425 142.259 182.515 128.369C181.575 126.14 180.66 123.941 179.905 121.712C154.51 46.9004 214.23 -18.733 208.559 -17.7311" stroke="#9D81FF" stroke-width="0.547331" stroke-miterlimit="10"/>
<path d="M495.897 643.386C498.005 642.052 444.855 629.348 459.058 548.875C461.322 536.046 464.255 523.89 466.918 512.311C475.396 475.683 482.852 445.129 472.242 413.216C464.716 390.581 447.873 367.423 416.041 341.079C413.005 338.583 409.933 336.124 406.831 333.693C390.908 321.226 374.106 309.498 358 297.919C341.258 285.909 325.199 274.474 309.415 263.314C289.913 249.62 270.947 236.14 253.527 222.207C234.296 206.975 216.987 191.199 203.158 174.351C192.961 161.921 184.776 148.896 179.515 134.739C178.674 132.465 177.887 130.208 177.216 127.943C154.332 50.7603 218.31 -16.8184 215.476 -16.3171" stroke="#9D81FF" stroke-width="0.547331" stroke-miterlimit="10"/>
<path d="M499.539 642.664C499.539 642.664 443.063 631.455 456.469 550.333C469.876 469.21 510.649 418.041 420.037 341.36C329.426 264.678 202.815 223.497 176.506 141.102C150.198 58.7074 222.389 -14.9144 222.389 -14.9144" stroke="#9D81FF" stroke-width="0.547331" stroke-miterlimit="10"/>
</g>
<g opacity="0.5">
<path d="M14.9597 384.735C80.7047 343.017 134.548 285.079 164.224 224.121C172.668 206.778 179.304 188.543 176.85 172.519C169.757 126.22 102.965 114.932 59.1162 100.415C6.19331 82.8941 -47.7411 66.61 -97.4606 44.903C-125.375 32.7165 -153.952 15.692 -153.475 -13.7984C-152.992 -43.6622 -123.24 -74.0757 -98.5377 -102.206C-69.7532 -134.985 -44.9511 -170.567 -33.4323 -206.765C-21.9151 -242.96 -24.9525 -279.905 -48.3126 -303.378C-66.6036 -321.76 -95.5035 -330.631 -124.957 -336.758C-202.348 -352.856 -289.249 -352.903 -377.691 -336.899" stroke="#9D81FF" stroke-width="0.547331" stroke-miterlimit="10"/>
<path d="M18.4599 384.038C82.0491 343.682 132.117 287.254 161.429 225.667C169.613 208.471 176.173 190.444 173.892 174.568C167.323 128.588 103.139 116.512 60.3307 101.53C14.6892 85.5562 -32.2389 70.7906 -76.7899 52.1931C-82.2792 49.9136 -87.7268 47.5815 -93.1249 45.1853C-120.625 32.9839 -148.795 16.1323 -148.873 -12.7591C-148.964 -42.0248 -120.759 -71.7952 -97.4217 -99.352C-70.2654 -131.486 -46.9418 -166.322 -36.3949 -201.77C-25.9119 -237.261 -29.4257 -273.5 -52.4537 -296.757C-68.0983 -312.565 -91.3648 -321.496 -115.908 -327.821C-119.706 -328.802 -123.547 -329.695 -127.367 -330.587C-203.163 -348.293 -284.714 -351.074 -370.252 -335.608" stroke="#9D81FF" stroke-width="0.547331" stroke-miterlimit="10"/>
<path d="M21.9458 383.359C83.3769 344.365 129.682 289.445 158.622 227.227C166.552 210.177 173.029 192.359 170.921 176.628C164.878 130.966 103.299 118.108 61.5306 102.66C17.3306 86.3118 -28.6339 71.3833 -72.7209 52.5086C-78.1226 50.2218 -83.4854 47.8838 -88.8031 45.4866C-115.888 33.2707 -143.652 16.5904 -144.282 -11.7028C-144.951 -40.3716 -118.289 -69.5022 -96.3181 -96.4856C-70.7914 -127.974 -48.9384 -162.068 -39.3671 -196.77C-29.9143 -231.559 -33.905 -267.089 -56.6038 -290.131C-72.0525 -305.825 -94.7837 -314.904 -118.649 -321.502C-122.342 -322.527 -126.091 -323.448 -129.785 -324.411C-204.003 -343.744 -280.189 -349.229 -362.822 -334.301" stroke="#9D81FF" stroke-width="0.547331" stroke-miterlimit="10"/>
<path d="M25.4151 382.676C84.6941 345.043 127.249 291.638 155.813 228.785C163.493 211.884 169.885 194.272 167.949 178.688C162.432 133.346 103.456 119.712 62.7291 103.789C19.9695 87.0732 -24.9395 71.8607 -68.6583 52.8222C-73.9621 50.5147 -79.2506 48.1839 -84.4852 45.784C-111.156 33.553 -138.512 17.0456 -139.696 -10.6479C-140.938 -38.7192 -115.767 -67.1871 -95.2132 -93.6193C-71.246 -124.44 -50.8238 -157.819 -42.3299 -191.767C-33.8016 -225.86 -38.3728 -260.677 -60.7402 -283.499C-75.993 -299.079 -98.1911 -308.303 -121.378 -315.18C-124.967 -316.252 -128.622 -317.199 -132.19 -318.23C-204.844 -339.216 -275.658 -347.385 -355.391 -332.991" stroke="#9D81FF" stroke-width="0.547331" stroke-miterlimit="10"/>
<path d="M28.8736 381.993C86.0002 345.722 124.82 293.838 153.003 230.345C160.439 213.595 166.742 196.188 164.978 180.753C159.99 135.729 103.617 121.325 63.9252 104.922C22.605 87.8451 -21.3132 72.4173 -64.6002 53.137C-69.8133 50.8151 -75.0214 48.483 -80.173 46.0804C-106.432 33.8352 -133.379 17.4964 -135.114 -9.59856C-136.928 -37.0741 -113.278 -64.8952 -94.1026 -90.7586C-71.7364 -120.928 -52.77 -153.571 -45.277 -186.769C-37.742 -220.163 -42.8205 -254.267 -64.8558 -276.876C-79.9126 -292.342 -101.579 -301.714 -124.086 -308.865C-127.571 -309.982 -131.132 -310.96 -134.579 -312.057C-205.682 -334.722 -271.12 -345.548 -347.954 -331.694" stroke="#9D81FF" stroke-width="0.547331" stroke-miterlimit="10"/>
<path d="M32.2906 381.288C87.2771 346.378 122.373 296.013 150.173 231.882C157.367 215.283 163.579 198.082 161.989 182.794C157.526 138.092 103.746 122.926 65.0837 106.038C25.1915 88.6124 -17.7378 72.9661 -60.5951 53.4384C-65.7171 51.1042 -70.8455 48.771 -75.9148 46.3659C-101.762 34.1058 -128.306 17.9403 -130.594 -8.55475C-132.98 -35.4346 -110.847 -62.6099 -93.0491 -87.9041C-72.2769 -117.425 -54.7674 -149.336 -48.2753 -181.78C-41.7328 -214.477 -47.3187 -247.869 -69.0266 -270.259C-83.8867 -285.613 -105.024 -295.131 -126.859 -302.557C-130.241 -303.72 -133.711 -304.728 -137.031 -305.892C-206.602 -330.261 -266.666 -343.713 -340.614 -330.395" stroke="#9D81FF" stroke-width="0.547331" stroke-miterlimit="10"/>
<path d="M35.7014 380.588C88.5516 347.041 119.939 298.198 147.345 233.425C154.304 216.977 160.421 199.982 159.002 184.843C155.064 140.462 103.874 124.543 66.2421 107.162C27.7762 89.3947 -14.1672 73.5206 -56.5975 53.7486C-61.6313 51.4036 -66.6748 49.0663 -71.6672 46.6616C-97.1047 34.3866 -123.246 18.394 -126.083 -7.50455C-129.043 -33.7853 -108.423 -60.3184 -92.0001 -85.0433C-72.8205 -113.918 -56.7674 -145.093 -51.2708 -176.783C-45.7203 -208.785 -51.8083 -241.462 -73.193 -263.634C-87.8584 -278.873 -108.468 -288.537 -129.628 -296.239C-132.906 -297.446 -136.281 -298.489 -139.479 -299.715C-207.526 -325.815 -262.217 -341.86 -333.286 -329.081" stroke="#9D81FF" stroke-width="0.547331" stroke-miterlimit="10"/>
<path d="M39.151 379.887C89.8681 347.7 117.568 300.379 144.573 234.961C151.3 218.667 157.278 201.887 156.073 186.884C152.541 142.86 104.052 126.164 67.4468 108.285C30.3985 90.1903 -10.5602 74.0832 -52.5669 54.0629C-57.5102 51.7057 -62.4747 49.3674 -67.3855 46.9603C-92.4181 34.6726 -118.158 18.8506 -121.543 -6.44786C-125.074 -32.1332 -105.964 -58.0252 -90.9123 -82.1781C-73.3224 -110.407 -58.7215 -140.851 -54.2222 -171.786C-49.6663 -203.094 -56.2557 -235.054 -77.3131 -257.01C-91.7865 -272.134 -111.904 -281.9 -132.356 -289.922C-135.536 -291.171 -138.814 -292.251 -141.89 -293.538C-208.423 -321.397 -257.747 -340.004 -325.945 -327.757" stroke="#9D81FF" stroke-width="0.547331" stroke-miterlimit="10"/>
<path d="M42.6864 379.201C91.2801 348.368 115.301 302.566 141.9 236.497C148.399 220.355 154.271 203.781 153.244 188.923C150.22 145.224 104.317 127.795 68.7312 109.415C33.0879 91.0036 -6.89225 74.6615 -48.4739 54.3915C-53.3303 52.024 -58.214 49.6838 -63.0449 47.2727C-87.6741 34.9728 -113.018 19.3266 -116.958 -5.37441C-121.06 -30.4627 -103.459 -55.7201 -89.7787 -79.3017C-73.7745 -106.892 -60.6311 -136.6 -57.1198 -166.784C-53.5585 -197.399 -60.652 -228.644 -81.3888 -250.38C-95.6727 -265.388 -115.269 -275.295 -135.051 -283.592C-138.13 -284.883 -141.314 -286.003 -144.266 -287.348C-209.293 -316.995 -253.265 -338.119 -318.601 -326.399" stroke="#9D81FF" stroke-width="0.547331" stroke-miterlimit="10"/>
<path d="M46.2203 378.509C92.6885 349.03 113.049 304.749 139.231 238.03C145.505 222.039 151.269 205.669 150.418 190.96C147.904 147.588 104.583 129.432 70.0187 110.541C35.7782 91.8251 -3.21895 75.238 -44.3822 54.7192C-49.1518 52.3414 -53.9546 49.999 -58.7048 47.5859C-82.9297 35.2757 -107.88 19.8014 -112.369 -4.29999C-117.045 -28.7919 -100.949 -53.4146 -88.6396 -76.4252C-74.2209 -103.378 -62.5321 -132.355 -60.0115 -161.781C-57.4486 -191.706 -65.0403 -222.233 -85.455 -243.751C-99.5468 -258.646 -118.629 -268.69 -137.737 -277.263C-140.714 -278.6 -143.802 -279.757 -146.634 -281.16C-210.149 -312.628 -248.776 -336.237 -311.254 -325.04" stroke="#9D81FF" stroke-width="0.547331" stroke-miterlimit="10"/>
<path d="M49.7462 377.82C94.0942 349.694 110.8 306.934 136.556 239.563C142.609 223.726 148.264 207.559 147.586 192.997C145.582 149.95 104.837 131.084 71.2981 111.67C38.4519 92.6616 0.439516 75.821 -40.2975 55.0487C-44.9793 52.6626 -49.7034 50.3144 -54.3745 47.9025C-78.1993 35.5816 -102.755 20.2828 -107.794 -3.22301C-113.041 -27.1183 -98.4501 -51.1105 -87.5091 -73.5486C-74.6756 -99.8671 -64.445 -128.108 -62.91 -156.781C-61.3448 -186.016 -69.4352 -215.827 -89.5296 -237.125C-103.432 -251.904 -121.994 -262.088 -140.433 -270.938C-143.307 -272.318 -146.301 -273.517 -149.016 -274.974C-211.013 -308.297 -244.305 -334.35 -303.927 -323.681" stroke="#9D81FF" stroke-width="0.547331" stroke-miterlimit="10"/>
<path d="M53.2829 377.131C95.512 350.359 108.578 309.122 133.9 241.096C139.738 225.412 145.275 209.449 144.774 195.036C143.282 152.316 105.107 132.746 72.5956 112.803C41.1405 93.5107 4.11283 76.4112 -36.1993 55.3835C-40.7944 52.987 -45.4378 50.6367 -50.0282 48.2228C-73.4504 35.8895 -97.612 20.7645 -103.199 -2.14218C-109.018 -25.443 -95.934 -48.8038 -86.3595 -70.6679C-75.1086 -96.3557 -66.3386 -123.861 -65.7855 -151.777C-65.2184 -180.324 -73.8026 -209.416 -93.5795 -230.492C-107.293 -245.155 -125.335 -255.48 -143.104 -264.605C-145.877 -266.03 -148.776 -267.269 -151.369 -268.78C-211.831 -303.997 -239.809 -332.453 -296.576 -322.309" stroke="#9D81FF" stroke-width="0.547331" stroke-miterlimit="10"/>
<path d="M56.8134 376.442C96.9226 351.023 106.367 311.305 131.242 242.626C136.867 227.096 142.288 211.335 141.96 197.071C140.982 154.674 105.369 134.415 73.8868 113.935C43.8117 94.3726 7.7757 77.0028 -32.1092 55.7179C-36.6176 53.3112 -41.1804 50.9588 -45.6912 48.5409C-68.7112 36.1953 -92.4164 21.2195 -98.6183 -1.06436C-104.944 -23.7956 -93.4309 -46.5029 -85.22 -67.7896C-75.5552 -92.8498 -68.2429 -119.617 -68.6668 -146.78C-69.1034 -174.639 -78.1784 -203.014 -97.6328 -223.871C-111.157 -238.419 -128.681 -248.886 -145.78 -258.284C-148.453 -259.752 -151.251 -261.038 -153.728 -262.601C-212.637 -299.746 -235.321 -330.568 -289.237 -320.947" stroke="#9D81FF" stroke-width="0.547331" stroke-miterlimit="10"/>
<path d="M60.3385 375.749C98.3319 351.682 104.165 313.485 128.585 244.152C134 228.777 139.302 213.217 139.147 199.103C138.685 157.033 105.625 136.094 75.1811 115.068C46.48 95.2457 11.4412 77.5978 -28.0152 56.0524C-32.4361 53.6372 -36.9193 51.2808 -41.3496 48.8609C-63.9704 36.5045 -87.2772 21.6994 -94.0294 0.0155323C-100.923 -22.1234 -90.9206 -44.2047 -84.0688 -64.9143C-75.989 -89.3475 -70.1346 -115.379 -71.5354 -141.784C-72.9763 -168.957 -82.5398 -196.612 -101.676 -217.251C-115.008 -231.684 -132.018 -242.291 -148.446 -251.962C-151.017 -253.476 -153.717 -254.808 -156.08 -256.418C-213.411 -295.531 -230.829 -328.674 -281.894 -319.577" stroke="#9D81FF" stroke-width="0.547331" stroke-miterlimit="10"/>
<path d="M63.8704 375.064C99.7456 352.347 101.988 315.67 125.935 245.682C131.142 230.463 136.325 215.105 136.343 201.14C136.398 159.396 105.884 137.79 76.4808 116.206C49.1442 96.1347 15.1062 78.204 -23.9204 56.3946C-28.2575 53.9706 -32.6576 51.6107 -37.0101 49.1902C-59.2293 36.8215 -82.14 22.1905 -89.4442 1.10242C-96.9085 -20.443 -88.4129 -41.9006 -82.9219 -62.0323C-76.4283 -85.8431 -72.0352 -111.135 -74.4072 -136.786C-76.8553 -163.274 -86.9035 -190.208 -105.721 -210.628C-118.865 -224.946 -135.357 -235.695 -151.116 -245.639C-153.585 -247.196 -156.187 -248.575 -158.433 -250.233C-214.156 -291.353 -226.338 -326.773 -274.557 -318.199" stroke="#9D81FF" stroke-width="0.547331" stroke-miterlimit="10"/>
<path d="M67.3929 374.369C101.155 353.003 99.8151 317.842 123.285 247.202C128.29 232.139 133.349 216.981 133.538 203.167C134.11 161.747 106.13 139.491 77.7754 117.338C51.7932 97.0336 18.7618 78.8071 -19.8328 56.7322C-24.0824 54.2999 -28.4041 51.934 -32.6752 49.5134C-54.4934 37.1325 -77.0093 22.6738 -84.866 2.18635C-92.8978 -18.7675 -85.915 -39.6012 -81.7804 -59.1552C-76.8758 -82.345 -73.9421 -106.895 -77.2811 -131.793C-80.7415 -157.594 -91.2699 -183.812 -109.765 -204.011C-122.72 -218.214 -138.695 -229.104 -153.782 -239.321C-156.149 -240.924 -158.649 -242.353 -160.782 -244.056C-214.866 -287.217 -221.848 -324.874 -267.22 -316.819" stroke="#9D81FF" stroke-width="0.547331" stroke-miterlimit="10"/>
<path d="M70.938 373.688C102.586 353.671 97.6833 320.022 120.66 248.73C125.465 233.819 130.397 218.865 130.759 205.202C131.849 164.11 106.389 141.214 79.0971 118.479C54.4571 97.9542 22.4415 79.4246 -15.7174 57.0794C-19.8823 54.6402 -24.1194 52.2675 -28.3139 49.8444C-49.734 37.4528 -71.8556 23.1665 -80.2604 3.27441C-88.8624 -17.0869 -83.3934 -37.3013 -80.6072 -56.2776C-77.2944 -78.8479 -75.8196 -102.658 -80.1189 -126.803C-84.5921 -151.92 -95.596 -177.42 -113.776 -197.4C-126.539 -211.486 -141.998 -222.519 -156.42 -233.007C-158.685 -234.655 -161.082 -236.133 -163.106 -237.881C-215.508 -283.125 -217.333 -322.974 -259.862 -315.437" stroke="#9D81FF" stroke-width="0.547331" stroke-miterlimit="10"/>
<path d="M74.4637 372.993C104.001 354.325 95.5466 322.189 118.02 250.244C122.629 235.49 127.433 220.735 127.969 207.221C129.582 166.456 106.629 142.936 80.4058 119.609C57.0957 98.8753 26.1048 80.0354 -11.6198 57.4182C-15.7002 54.9723 -19.8554 52.5942 -23.9697 50.1692C-44.9896 37.7657 -66.7212 23.6513 -75.6747 4.35946C-84.8495 -15.4083 -80.8937 -35.0046 -79.4543 -53.4021C-77.7374 -75.3563 -77.7198 -98.4254 -82.9792 -121.819C-88.4713 -146.251 -99.9481 -171.036 -117.81 -190.794C-130.385 -204.765 -145.324 -215.94 -159.08 -226.697C-161.244 -228.391 -163.536 -229.921 -165.45 -231.708C-216.126 -279.071 -212.84 -321.067 -252.527 -314.05" stroke="#9D81FF" stroke-width="0.547331" stroke-miterlimit="10"/>
<path d="M78.0134 372.313C105.44 354.991 93.4538 324.361 115.404 251.768C119.818 237.168 124.494 222.615 125.2 209.253C127.334 168.815 106.873 144.683 81.7314 120.756C59.7392 99.8251 29.7783 80.6675 -7.5048 57.7742C-11.5017 55.3195 -15.5741 52.938 -19.6109 50.5125C-40.2311 38.0973 -61.5722 24.157 -71.0739 5.45954C-80.8188 -13.7167 -78.3831 -32.6968 -78.2864 -50.516C-78.1711 -71.8543 -79.6084 -94.1797 -85.8224 -116.825C-92.3386 -140.57 -104.282 -164.641 -121.823 -184.18C-134.211 -198.035 -148.632 -209.354 -161.722 -220.377C-163.783 -222.114 -165.969 -223.7 -167.775 -225.528C-216.677 -275.045 -208.328 -319.148 -245.177 -312.646" stroke="#9D81FF" stroke-width="0.547331" stroke-miterlimit="10"/>
<path d="M81.5551 371.624C106.869 355.645 91.3653 326.52 112.786 253.278C117.012 238.831 121.554 224.482 122.429 211.271C125.09 171.16 107.102 146.434 83.0567 121.892C62.3692 100.774 33.4472 81.292 -3.39505 58.1229C-7.30757 55.6615 -11.2983 53.2748 -15.2551 50.8474C-35.4788 38.4222 -56.4273 24.6547 -66.4763 6.5531C-76.7953 -12.0325 -75.8781 -30.3958 -77.1185 -47.6408C-78.6098 -68.3615 -81.501 -89.9495 -88.6659 -111.848C-96.2089 -134.905 -108.618 -158.266 -125.841 -177.584C-138.041 -191.322 -151.942 -202.784 -164.369 -214.075C-166.33 -215.858 -168.407 -217.495 -170.11 -219.365C-217.185 -271.067 -203.83 -317.238 -237.838 -311.25" stroke="#9D81FF" stroke-width="0.547331" stroke-miterlimit="10"/>
<path d="M85.1185 370.939C108.325 356.303 89.3194 328.678 110.191 254.786C114.229 240.493 118.636 226.346 119.68 213.285C122.865 173.502 107.333 148.193 84.4031 123.029C65.0054 101.738 37.135 81.925 0.733523 58.4753C-3.09472 56.0073 -7.00483 53.6134 -10.8807 51.1861C-30.7058 38.7498 -51.2677 25.1584 -61.8654 7.65018C-72.7549 -10.3449 -73.3679 -28.0886 -75.9398 -44.7635C-79.0412 -64.8683 -83.3869 -85.715 -91.4948 -106.871C-100.067 -129.24 -112.938 -151.891 -129.846 -170.989C-141.856 -184.613 -155.24 -196.217 -167.004 -207.772C-168.863 -209.6 -170.83 -211.292 -172.427 -213.199C-217.614 -267.12 -199.312 -315.32 -230.485 -309.844" stroke="#9D81FF" stroke-width="0.547331" stroke-miterlimit="10"/>
<path d="M88.6934 370.257C109.789 356.962 87.2981 330.831 107.61 256.294C111.461 242.156 115.731 228.209 116.946 215.299C120.659 175.842 107.56 149.968 85.7615 124.168C67.6368 102.715 40.827 82.5639 4.87441 58.8318C1.12764 56.3588 -2.69831 53.9583 -6.4954 51.5273C-25.9223 39.0804 -46.0984 25.6653 -57.2414 8.75043C-68.7072 -8.65179 -70.8476 -25.7788 -74.7483 -41.886C-79.4668 -61.3701 -85.2627 -81.4816 -94.3139 -101.896C-103.925 -123.576 -117.25 -145.521 -133.839 -164.399C-145.663 -177.906 -158.526 -189.652 -169.629 -201.475C-171.386 -203.345 -173.241 -205.095 -174.737 -207.04C-217.977 -263.208 -194.789 -313.399 -223.125 -308.432" stroke="#9D81FF" stroke-width="0.547331" stroke-miterlimit="10"/>
<path d="M92.2793 369.576C111.267 357.619 85.3065 332.977 105.035 257.796C108.705 243.811 112.837 230.066 114.219 217.309C118.461 178.178 107.772 151.753 87.123 125.308C70.2546 103.701 44.5162 83.2095 9.01342 59.1924C5.35071 56.713 1.60612 54.3075 -2.11129 51.8749C-21.1434 39.4192 -40.9315 26.1796 -52.6229 9.85896C-64.6629 -6.95233 -68.336 -23.461 -73.5592 -39.0027C-79.9013 -57.8664 -87.1493 -77.2405 -97.1372 -96.9206C-107.789 -117.909 -121.564 -139.151 -137.84 -157.806C-149.477 -171.197 -161.819 -183.087 -172.262 -195.171C-173.917 -197.086 -175.66 -198.892 -177.056 -200.871C-218.282 -259.313 -190.277 -311.464 -215.777 -307.004" stroke="#9D81FF" stroke-width="0.547331" stroke-miterlimit="10"/>
<path d="M95.8795 368.897C112.757 358.277 83.3479 335.118 102.479 259.296C105.968 245.463 109.962 231.92 111.51 219.314C116.283 180.511 107.979 153.547 88.5029 126.445C72.8739 104.695 48.2208 83.8591 13.1685 59.5545C9.58711 57.0702 5.92644 54.6583 2.28592 52.2257C-16.3492 39.7604 -35.7554 26.6994 -47.9914 10.9678C-60.6088 -5.25157 -65.8176 -21.1417 -72.3619 -36.1224C-80.3295 -54.3637 -89.0282 -73.005 -99.9522 -91.9497C-111.65 -112.242 -125.874 -132.786 -141.836 -151.22C-153.287 -164.494 -165.108 -176.529 -174.892 -188.874C-176.446 -190.835 -178.073 -192.696 -179.371 -194.713C-218.516 -255.449 -185.758 -309.535 -208.425 -305.578" stroke="#9D81FF" stroke-width="0.547331" stroke-miterlimit="10"/>
<path d="M99.4964 368.216C114.266 358.928 81.4213 337.251 99.9371 260.786C103.251 247.104 107.099 233.763 108.814 221.31C114.12 182.835 108.174 155.345 89.8954 127.576C75.4881 105.69 51.934 84.5053 17.3368 59.9113C13.8365 57.4222 10.2597 55.004 6.69867 52.57C-11.5389 40.0975 -30.5612 27.2144 -43.3451 12.0728C-56.5403 -3.5551 -63.2884 -18.8212 -71.1508 -33.2486C-80.7476 -50.862 -90.9013 -68.7721 -102.753 -86.9919C-115.503 -106.586 -130.172 -126.437 -145.817 -144.65C-157.08 -157.808 -168.381 -169.983 -177.504 -182.592C-178.954 -184.598 -180.466 -186.517 -181.668 -188.568C-218.667 -251.62 -181.225 -307.613 -201.057 -304.157" stroke="#9D81FF" stroke-width="0.547331" stroke-miterlimit="10"/>
<path d="M103.127 367.544C115.789 359.586 79.5248 339.387 97.4031 262.278C100.541 248.746 104.244 235.607 106.127 223.303C111.964 185.151 108.346 157.146 91.2868 128.705C78.0813 106.689 55.6343 85.158 21.4952 60.2744C18.0758 57.7809 14.5853 55.3553 11.0998 52.9197C-6.74535 40.4411 -25.4277 27.7678 -38.7182 13.1861C-52.5345 -1.81779 -60.7842 -16.4918 -69.9604 -30.3694C-81.1932 -47.3529 -92.7969 -64.5335 -105.581 -82.0271C-119.386 -100.92 -134.499 -120.079 -149.832 -138.07C-160.911 -151.111 -171.689 -163.43 -180.158 -176.298C-181.506 -178.347 -182.9 -180.324 -184.009 -182.409C-218.793 -247.791 -176.739 -305.675 -193.74 -302.719" stroke="#9D81FF" stroke-width="0.547331" stroke-miterlimit="10"/>
<path d="M106.743 366.877C117.292 360.238 77.6153 341.536 94.7963 263.742C97.7545 250.351 101.304 237.408 103.345 225.248C109.698 187.403 108.364 158.879 92.5367 129.758C80.5046 107.619 59.1644 85.7508 25.4703 60.5919C22.1311 58.0977 18.7205 55.6644 15.3135 53.2315C-2.14523 40.7556 -20.4502 28.2729 -34.3019 14.2888C-48.7043 -0.118559 -58.5064 -14.1606 -69.0095 -27.4879C-81.8882 -43.8304 -94.9596 -60.2786 -108.68 -77.0477C-123.555 -95.2295 -139.121 -113.698 -154.151 -131.458C-165.053 -144.374 -175.317 -156.833 -183.138 -169.958C-184.387 -172.052 -185.659 -174.085 -186.678 -176.206C-219.213 -243.93 -172.647 -303.753 -186.814 -301.28" stroke="#9D81FF" stroke-width="0.547331" stroke-miterlimit="10"/>
<path d="M110.372 366.197C118.811 360.879 75.7386 343.675 92.2057 265.203C94.9856 251.955 98.3821 239.203 100.581 227.19C107.454 189.648 108.374 160.615 93.8052 130.807C82.9254 108.549 62.7074 86.3412 29.4584 60.9031C26.1956 58.4077 22.8694 55.9689 19.5371 53.5383C2.46409 41.0645 -15.4652 28.7702 -29.8809 15.3865C-44.8661 1.57726 -56.2265 -11.8276 -68.0541 -24.604C-82.5818 -40.3014 -97.1176 -56.0143 -111.773 -72.0625C-127.724 -89.5247 -143.734 -107.307 -158.465 -124.839C-169.191 -137.634 -178.939 -150.232 -186.114 -163.615C-187.26 -165.754 -188.414 -167.842 -189.343 -170C-219.565 -240.078 -168.548 -301.838 -179.884 -299.849" stroke="#9D81FF" stroke-width="0.547331" stroke-miterlimit="10"/>
<path d="M114.008 365.509C120.336 361.517 73.8869 345.812 89.6202 266.665C92.2273 253.557 95.4906 241 97.8229 229.134C105.294 191.891 108.359 162.354 95.0763 131.852C85.3328 109.47 66.2456 86.9259 33.4462 61.2073C30.2623 58.7092 27.0176 56.2662 23.7625 53.8364C7.0717 41.366 -10.4789 29.2604 -25.4566 16.4767C-41.0262 3.26496 -53.9461 -9.49492 -67.0957 -21.7249C-83.2704 -36.769 -99.2777 -51.7432 -114.868 -67.0722C-131.896 -83.8113 -148.354 -100.909 -162.784 -118.212C-173.332 -130.886 -182.533 -143.64 -189.097 -157.266C-190.138 -159.45 -191.174 -161.595 -192.018 -163.785C-219.859 -236.226 -164.461 -299.922 -172.963 -298.424" stroke="#9D81FF" stroke-width="0.547331" stroke-miterlimit="10"/>
<path d="M117.635 364.807C121.854 362.14 72.0446 347.939 87.024 268.124C89.4576 255.155 92.5589 242.798 95.0549 231.076C103.03 194.139 108.305 164.095 96.3421 132.889C87.7148 110.383 69.7707 87.5064 37.4287 61.499C34.3208 58.9996 31.1603 56.551 27.9813 54.1199C11.6746 41.6511 -5.50168 29.7336 -21.042 17.5511C-37.1967 4.93793 -51.6752 -7.17073 -66.1523 -18.8548C-83.9769 -33.2395 -101.454 -47.4741 -117.981 -62.086C-136.088 -78.093 -152.994 -94.5101 -167.125 -111.585C-177.497 -124.138 -186.192 -137.027 -192.102 -150.917C-193.043 -153.146 -193.957 -155.345 -194.712 -157.574C-220.108 -232.386 -160.387 -298.019 -166.059 -297.017" stroke="#9D81FF" stroke-width="0.547331" stroke-miterlimit="10"/>
<path d="M121.279 364.099C123.388 362.765 70.2371 350.061 84.4401 269.589C86.7042 256.76 89.6375 244.604 92.3004 233.025C100.779 196.397 108.235 165.842 97.6248 133.93C90.0983 111.294 73.2553 88.1365 41.424 61.7927C38.3877 59.2967 35.3155 56.8375 32.2134 54.4069C16.2903 41.9392 -0.511245 30.2112 -16.6176 18.6324C-33.3599 6.62229 -49.4182 -4.81196 -65.2023 -15.9723C-84.7043 -29.6663 -103.671 -43.1468 -121.091 -57.0793C-140.321 -72.3112 -157.631 -88.0879 -171.459 -104.935C-181.657 -117.366 -189.842 -130.391 -195.102 -144.548C-195.943 -146.822 -196.73 -149.078 -197.402 -151.343C-220.285 -228.526 -156.307 -296.105 -159.141 -295.603" stroke="#9D81FF" stroke-width="0.547331" stroke-miterlimit="10"/>
<path d="M124.922 363.377C124.922 363.377 68.4459 352.169 81.852 271.046C95.2581 189.923 136.032 138.755 45.42 62.0733C-45.1918 -14.6079 -171.803 -55.7895 -198.111 -138.184C-224.42 -220.579 -152.228 -294.201 -152.228 -294.201" stroke="#9D81FF" stroke-width="0.547331" stroke-miterlimit="10"/>
</g>
</g>
<rect x="39.5245" y="49.5245" width="315.951" height="285.951" rx="142.975" stroke="#59459E" stroke-width="1.04902"/>
<g opacity="0.1">
<g filter="url(#filter0_f_156_1887)">
<path d="M208.601 377.12C118.031 381.334 40.6305 304.711 36.0213 205.635C31.4122 106.56 101.364 23.0819 191.934 18.8685C282.504 14.655 359.905 91.278 364.514 190.353C369.123 289.429 299.171 372.907 208.601 377.12Z" stroke="#59459E" stroke-width="3.56427"/>
</g>
<path d="M208.601 377.12C118.031 381.334 40.6305 304.711 36.0213 205.635C31.4122 106.56 101.364 23.0819 191.934 18.8685C282.504 14.655 359.905 91.278 364.514 190.353C369.123 289.429 299.171 372.907 208.601 377.12Z" stroke="#59459E" stroke-width="3.56427"/>
<g filter="url(#filter1_f_156_1887)">
<path d="M203.028 358.544C105.248 363.093 22.8725 294.141 18.7195 204.871C14.5665 115.6 90.1845 39.2991 187.964 34.7502C285.744 30.2014 368.12 99.1527 372.273 188.423C376.426 277.694 300.808 353.995 203.028 358.544Z" stroke="#59459E" stroke-width="3.56427"/>
</g>
<path d="M203.028 358.544C105.248 363.093 22.8725 294.141 18.7195 204.871C14.5665 115.6 90.1845 39.2991 187.964 34.7502C285.744 30.2014 368.12 99.1527 372.273 188.423C376.426 277.694 300.808 353.995 203.028 358.544Z" stroke="#59459E" stroke-width="3.56427"/>
</g>
<g filter="url(#filter2_f_156_1887)">
<path d="M356.754 193.466C356.754 273.521 285.997 338.643 198.424 338.643C110.851 338.643 40.0947 273.521 40.0947 193.466C40.0947 113.411 110.851 48.2886 198.424 48.2886C285.997 48.2886 356.754 113.411 356.754 193.466Z" stroke="#59459E" stroke-width="3.14706"/>
</g>
<path d="M356.754 193.466C356.754 273.521 285.997 338.643 198.424 338.643C110.851 338.643 40.0947 273.521 40.0947 193.466C40.0947 113.411 110.851 48.2886 198.424 48.2886C285.997 48.2886 356.754 113.411 356.754 193.466Z" stroke="#59459E" stroke-width="3.14706"/>
<g filter="url(#filter3_f_156_1887)">
<path d="M340.142 197.619C340.142 284.047 275.947 353.872 197.041 353.872C118.135 353.872 53.9404 284.047 53.9404 197.619C53.9404 111.192 118.135 41.3665 197.041 41.3665C275.947 41.3665 340.142 111.192 340.142 197.619Z" stroke="#59459E" stroke-width="3.14706"/>
</g>
<path d="M340.142 197.619C340.142 284.047 275.947 353.872 197.041 353.872C118.135 353.872 53.9404 284.047 53.9404 197.619C53.9404 111.192 118.135 41.3665 197.041 41.3665C275.947 41.3665 340.142 111.192 340.142 197.619Z" stroke="#59459E" stroke-width="3.14706"/>
<g filter="url(#filter4_f_156_1887)">
<path d="M346.204 194.158C346.204 278.878 280.616 347.475 199.81 347.475C119.004 347.475 53.4159 278.878 53.4159 194.158C53.4159 109.438 119.004 40.842 199.81 40.842C280.616 40.842 346.204 109.438 346.204 194.158Z" stroke="#59459E" stroke-width="2.09804"/>
</g>
<path d="M346.204 194.158C346.204 278.878 280.616 347.475 199.81 347.475C119.004 347.475 53.4159 278.878 53.4159 194.158C53.4159 109.438 119.004 40.842 199.81 40.842C280.616 40.842 346.204 109.438 346.204 194.158Z" stroke="#59459E" stroke-width="2.09804"/>
<defs>
<filter id="filter0_f_156_1887" x="17.3908" y="0.287138" width="365.754" height="395.415" filterUnits="userSpaceOnUse" color-interpolation-filters="sRGB">
<feFlood flood-opacity="0" result="BackgroundImageFix"/>
<feBlend mode="normal" in="SourceGraphic" in2="BackgroundImageFix" result="shape"/>
<feGaussianBlur stdDeviation="8.31664" result="effect1_foregroundBlur_156_1887"/>
</filter>
<filter id="filter1_f_156_1887" x="0.140684" y="16.1223" width="390.711" height="361.05" filterUnits="userSpaceOnUse" color-interpolation-filters="sRGB">
<feFlood flood-opacity="0" result="BackgroundImageFix"/>
<feBlend mode="normal" in="SourceGraphic" in2="BackgroundImageFix" result="shape"/>
<feGaussianBlur stdDeviation="8.31664" result="effect1_foregroundBlur_156_1887"/>
</filter>
<filter id="filter2_f_156_1887" x="23.8349" y="32.0288" width="349.179" height="322.874" filterUnits="userSpaceOnUse" color-interpolation-filters="sRGB">
<feFlood flood-opacity="0" result="BackgroundImageFix"/>
<feBlend mode="normal" in="SourceGraphic" in2="BackgroundImageFix" result="shape"/>
<feGaussianBlur stdDeviation="7.34314" result="effect1_foregroundBlur_156_1887"/>
</filter>
<filter id="filter3_f_156_1887" x="37.6806" y="25.1067" width="318.721" height="345.025" filterUnits="userSpaceOnUse" color-interpolation-filters="sRGB">
<feFlood flood-opacity="0" result="BackgroundImageFix"/>
<feBlend mode="normal" in="SourceGraphic" in2="BackgroundImageFix" result="shape"/>
<feGaussianBlur stdDeviation="7.34314" result="effect1_foregroundBlur_156_1887"/>
</filter>
<filter id="filter4_f_156_1887" x="37.6806" y="25.1067" width="324.259" height="338.103" filterUnits="userSpaceOnUse" color-interpolation-filters="sRGB">
<feFlood flood-opacity="0" result="BackgroundImageFix"/>
<feBlend mode="normal" in="SourceGraphic" in2="BackgroundImageFix" result="shape"/>
<feGaussianBlur stdDeviation="7.34314" result="effect1_foregroundBlur_156_1887"/>
</filter>
<clipPath id="clip0_156_1887">
<rect x="39" y="49" width="317" height="287" rx="143.5" fill="white"/>
</clipPath>
</defs>
</svg>
