<svg width="1440" height="368" viewBox="0 0 1440 368" fill="none" xmlns="http://www.w3.org/2000/svg">
<g opacity="0.6" clip-path="url(#clip0_609_15)">
<path opacity="0.5" d="M1748 292.995C1748 433.014 1278.82 546.535 700.024 546.535C121.229 546.535 -348 433.04 -348 292.995C-348 240.022 -280.865 190.85 -165.995 150.17C-152.424 145.375 -147.359 138.821 -134.123 133.006C-122.082 127.701 -100.006 124.181 -90.8798 114.974C-70.9066 94.902 -55.1382 68.4794 -19.8266 61.1596C31.1101 50.5753 123.475 80.594 182.248 72.5091C230.986 65.8015 290.763 27.9274 343.945 23.158C409.312 17.292 426.084 48.8155 500.912 44.0207C545.733 41.1387 556.245 30.2228 608.137 29.7892C653.961 29.4066 662.897 37.7721 699.976 39.4554C785.985 43.332 808.205 0 884.418 0C955.806 0 1009.47 50.0907 1075.74 56.2373C1142.16 62.4094 1225.59 40.9601 1284.7 50.1162C1346.81 59.7314 1384.13 100.13 1436.41 112.602C1454.42 116.912 1471.81 121.376 1488.54 125.992C1505.69 130.71 1532.5 130.965 1548.17 135.99C1578.32 145.681 1595.29 160.55 1619.51 171.262C1629.74 175.777 1661.18 179.449 1674.37 187.05C1699.17 201.358 1696.39 212.758 1712.59 227.449C1735.67 248.362 1748 270.347 1748 292.995Z" fill="#9D81FF"/>
<path opacity="0.68" d="M1748 292.832C1748 432.941 1278.82 546.535 700.024 546.535C121.229 546.535 -348 432.967 -348 292.832C-348 272.237 -337.87 252.203 -318.709 233.037C-304.948 219.255 -296.49 202.437 -273.841 189.626C-246.939 174.415 -204.125 163.416 -165.995 149.915C-152.424 145.117 -138.185 140.421 -123.324 135.853C-81.2755 122.94 -54.4692 82.1828 -3.00699 71.4641C47.9297 60.8729 123.475 80.2943 182.2 72.2042C230.938 65.4922 294.538 38.7974 347.768 34.025C401.046 29.2271 443.955 46.3515 500.912 43.6974C530.92 42.2937 564.75 36.9854 595.57 36.2198C631.025 35.3521 663.565 39.1291 699.976 39.1291C757.22 39.1291 831.905 20.0396 886.808 20.0396C958.195 20.0396 1009.47 49.7713 1075.74 55.9219C1142.16 62.0979 1223.49 51.4302 1282.59 60.5922C1344.71 70.2135 1384.18 99.8432 1436.41 112.323C1454.42 116.636 1480.99 116.61 1497.67 121.23C1519.36 127.227 1530.73 137.946 1550.04 144.428C1575.36 152.927 1600.35 155.555 1621.23 164.768C1631.46 169.285 1639.44 180.157 1648.52 184.828C1657.64 189.498 1666.15 194.27 1674.08 199.094C1721.77 228.111 1748 259.731 1748 292.832Z" fill="#9D81FF"/>
<path opacity="0.3" d="M-348 293.078C-348 433.051 121.192 546.535 700 546.535C1278.81 546.535 1748 433.051 1748 293.078C1748 270.411 1735.72 248.459 1712.64 227.552C1699.36 215.518 1689.46 199.762 1669.35 188.492C1650.85 178.141 1622.61 172.251 1598.82 162.665C1583.05 156.316 1578.27 150.044 1560.35 144.078C1552.28 141.401 1531.87 138.877 1523.37 136.251C1481.32 123.35 1463.73 100.658 1412.27 89.9753C1361.33 79.3944 1276.56 80.7457 1217.79 72.6634C1169.05 65.9579 1105.45 39.289 1052.22 34.5212C998.937 29.7279 956.027 46.8358 899.068 44.1842C869.06 42.7819 835.229 37.4787 804.408 36.7138C768.952 35.847 736.411 39.6204 700 39.6204C642.755 39.6204 579.011 30.0594 524.155 30.0594C437.761 30.0339 440.819 47.1673 324.226 56.3969C212.889 65.2185 208.015 49.8444 134.38 62.6944C103.512 68.0741 117.656 68.4565 -36.4479 112.743C-93.7888 129.214 -123.606 136.225 -136.651 140.407C-167.281 150.197 -195.999 150.682 -220.56 161.517C-236.759 168.656 -250.568 185.892 -263.948 193.439C-288.365 207.232 -307.861 221.637 -321.91 236.553C-338.969 254.731 -348 273.649 -348 293.078Z" fill="#9D81FF"/>
</g>
<g opacity="0.6" clip-path="url(#clip1_609_15)">
<path opacity="0.5" d="M-348 75.0051C-348 -65.0143 121.181 -178.534 699.976 -178.534C1278.77 -178.534 1748 -65.0396 1748 75.0052C1748 127.978 1680.86 177.15 1565.99 217.83C1552.42 222.625 1547.36 229.179 1534.12 234.994C1522.08 240.299 1500.01 243.819 1490.88 253.026C1470.91 273.098 1455.14 299.521 1419.83 306.84C1368.89 317.425 1276.53 287.406 1217.75 295.491C1169.01 302.199 1109.24 340.073 1056.05 344.842C990.688 350.708 973.916 319.184 899.088 323.979C854.267 326.861 843.755 337.777 791.863 338.211C746.039 338.593 737.103 330.228 700.024 328.545C614.015 324.668 591.795 368 515.582 368C444.194 368 390.534 317.909 324.259 311.763C257.84 305.591 174.411 327.04 115.304 317.884C53.1858 308.269 15.8673 267.87 -36.4072 255.398C-54.4214 251.088 -71.8144 246.624 -88.5384 242.008C-105.692 237.29 -132.499 237.035 -148.171 232.01C-178.322 222.319 -195.286 207.45 -219.512 196.738C-229.737 192.223 -261.178 188.551 -274.366 180.95C-299.166 166.642 -296.394 155.242 -312.593 140.551C-335.672 119.638 -348 97.653 -348 75.0051Z" fill="#9D81FF"/>
<path opacity="0.68" d="M-348 75.1682C-348 -64.9412 121.181 -178.534 699.976 -178.534C1278.77 -178.534 1748 -64.9666 1748 75.1683C1748 95.7636 1737.87 115.797 1718.71 134.964C1704.95 148.745 1696.49 165.563 1673.84 178.375C1646.94 193.585 1604.13 204.584 1565.99 218.085C1552.42 222.883 1538.18 227.579 1523.32 232.147C1481.28 245.06 1454.47 285.817 1403.01 296.536C1352.07 307.127 1276.53 287.706 1217.8 295.796C1169.06 302.508 1105.46 329.203 1052.23 333.975C998.954 338.773 956.045 321.648 899.088 324.303C869.08 325.706 835.25 331.015 804.43 331.78C768.975 332.648 736.435 328.871 700.024 328.871C642.78 328.871 568.095 347.96 513.192 347.96C441.805 347.96 390.534 318.229 324.259 312.078C257.84 305.902 176.514 316.57 117.406 307.408C55.2883 297.786 15.8196 268.157 -36.4072 255.677C-54.4214 251.364 -80.9888 251.39 -97.665 246.77C-119.359 240.773 -130.731 230.054 -150.035 223.572C-175.36 215.073 -200.351 212.445 -221.232 203.232C-231.457 198.715 -239.437 187.843 -248.516 183.172C-257.642 178.502 -266.148 173.73 -274.08 168.906C-321.767 139.889 -348 108.269 -348 75.1682Z" fill="#9D81FF"/>
<path opacity="0.3" d="M1748 74.9226C1748 -65.0511 1278.81 -178.534 700 -178.534C121.192 -178.534 -348 -65.0512 -348 74.9225C-348 97.5886 -335.719 119.541 -312.64 140.448C-299.356 152.482 -289.464 168.238 -269.347 179.508C-250.855 189.859 -222.615 195.749 -198.818 205.335C-183.049 211.684 -178.271 217.956 -160.352 223.922C-152.276 226.599 -131.873 229.123 -123.367 231.749C-81.3172 244.65 -63.7325 267.342 -12.2692 278.025C38.6687 288.606 123.438 287.254 182.212 295.337C230.952 302.042 294.552 328.711 347.784 333.479C401.063 338.272 443.973 321.164 500.932 323.816C530.94 325.218 564.771 330.521 595.592 331.286C631.048 332.153 663.589 328.38 700 328.38C757.245 328.38 820.989 337.941 875.845 337.941C962.239 337.966 959.181 320.833 1075.77 311.603C1187.11 302.781 1191.98 318.156 1265.62 305.306C1296.49 299.926 1282.34 299.543 1436.45 255.257C1493.79 238.786 1523.61 231.775 1536.65 227.593C1567.28 217.803 1596 217.318 1620.56 206.483C1636.76 199.344 1650.57 182.108 1663.95 174.561C1688.37 160.768 1707.86 146.363 1721.91 131.448C1738.97 113.269 1748 94.3507 1748 74.9226Z" fill="#9D81FF"/>
</g>
<defs>
<clipPath id="clip0_609_15">
<rect width="2096" height="184" fill="white" transform="translate(-348)"/>
</clipPath>
<clipPath id="clip1_609_15">
<rect width="2096" height="184" fill="white" transform="translate(1748 368) rotate(-180)"/>
</clipPath>
</defs>
</svg>
