<svg width="174" height="41" viewBox="0 0 174 41" fill="none" xmlns="http://www.w3.org/2000/svg">
<path opacity="0.2" d="M42.011 21.0164C41.5641 26.7935 41.0231 33.7851 35.7161 37.2489C32.157 39.5729 28.189 39.1782 24.0074 38.7621C22.4025 38.602 14.3 37.6632 6.97732 31.2282C3.46888 28.1449 0.135959 25.2145 0.00387276 20.9417C-0.117357 16.9587 2.61665 14.1564 6.93027 9.7377C9.92484 6.67043 14.6076 1.87127 21.572 1.08356C23.5189 0.863069 25.0822 1.01954 27.2065 1.23292C31.4206 1.65611 35.5478 2.07042 38.2999 4.16861C43.0351 7.77465 42.4453 15.4028 42.011 21.0164Z" fill="#9D81FF"/>
<path opacity="0.4" d="M38.0791 30.6396C34.5399 34.1105 30.8324 35.3054 23.5659 37.6454C17.4736 39.6085 14.4284 40.5882 12.1051 39.685C7.46037 37.8766 6.20646 31.8381 3.733 19.9193C1.95617 11.3612 2.7324 9.27008 3.57015 7.94894C5.62745 4.70208 9.39463 3.93926 15.3349 2.73369C19.4585 1.89797 25.9109 0.589266 32.0647 3.71344C33.7854 4.5865 34.985 5.5538 36.6189 6.86961C39.8559 9.47813 43.026 12.0333 44.1533 15.1912C46.6267 22.1171 38.7395 29.9906 38.0791 30.6396Z" fill="#9D81FF"/>
<path d="M32.3488 9.60422C36.0089 13.0992 38.0429 17.2806 37.9993 20.8211C37.9966 24.4086 35.9148 27.3566 32.2765 29.44C28.6382 31.5152 24.3164 32.5153 20.6904 32.8009C17.0193 33.0462 14.044 32.5757 12.0536 30.7685C10.0687 28.9654 9.23385 26.008 9.10698 22.3025C9.02513 18.6386 9.64856 14.228 11.6212 10.4595C13.5843 6.69241 16.7069 4.46833 20.5048 4.34633C24.2618 4.1801 28.6941 6.11326 32.3488 9.60422Z" fill="#9D81FF"/>
<path d="M61.6865 32.4909C59.403 32.4909 57.4742 31.9895 55.9 30.9866C55.0297 30.4318 54.2968 29.7615 53.7052 28.9738C52.9199 27.9282 53.2293 26.4435 54.371 25.7874L54.5393 25.6914C55.4802 25.1508 56.6979 25.35 57.3728 26.191C58.3825 27.4499 59.8644 28.0794 61.8185 28.0794C63.0598 28.0794 63.9916 27.8624 64.6123 27.425C65.2329 26.9894 65.5441 26.4008 65.5441 25.6611C65.5441 24.8556 65.1786 24.2351 64.4458 23.7994C63.7148 23.3424 62.4066 22.8517 60.523 22.3289C58.4838 21.719 56.8771 21.0113 55.7009 20.2058C54.2371 19.139 53.5061 17.5706 53.5061 15.5009C53.5061 13.4098 54.248 11.7651 55.7335 10.5666C57.219 9.32547 59.0248 8.70312 61.1527 8.70312C63.0146 8.70312 64.6665 9.14943 66.1068 10.0421C66.8234 10.4866 67.4603 11.0218 68.0194 11.6495C68.9385 12.6826 68.6617 14.2882 67.453 14.9746C66.5465 15.4902 65.3668 15.3551 64.6756 14.5798C63.7836 13.5788 62.6111 13.0791 61.1545 13.0791C60.2226 13.0791 59.4808 13.2907 58.9271 13.7157C58.3734 14.1406 58.0966 14.6919 58.0966 15.3658C58.0966 16.0841 58.3951 16.6727 58.9941 17.1297C59.6581 17.5866 60.8342 18.0667 62.5188 18.5682L64.1147 19.0909C64.4024 19.1781 64.9018 19.363 65.6111 19.6457C66.2769 19.8858 66.7636 20.1151 67.0749 20.3321C68.1605 20.9847 68.8915 21.6603 69.2697 22.3574C69.8451 23.2731 70.1346 24.3506 70.1346 25.5918C70.1346 27.706 69.3475 29.3827 67.7733 30.6239C66.1973 31.8703 64.169 32.4909 61.6865 32.4909Z" fill="#9D81FF"/>
<path d="M82.6013 15.2375C84.8396 15.2375 86.7467 16.0768 88.3209 17.7536C89.9168 19.4304 90.7147 21.4681 90.7147 23.8632C90.7147 26.3028 89.9168 28.3512 88.3209 30.0067C86.7684 31.6621 84.8631 32.4907 82.6013 32.4907C80.5223 32.4907 78.8667 31.8559 77.6363 30.5863C77.4825 30.4281 77.2147 30.5312 77.2147 30.7499V36.6391C77.2147 37.7042 76.3372 38.5666 75.2533 38.5666H74.8878C73.804 38.5666 72.9265 37.7042 72.9265 36.6391V17.622C72.9265 16.5569 73.804 15.6945 74.8878 15.6945H75.2533C76.3372 15.6945 77.2147 16.5569 77.2147 17.622C78.4795 16.0324 80.2744 15.2375 82.6013 15.2375ZM78.5121 27.1972C79.377 28.0472 80.4735 28.4721 81.8034 28.4721C83.1333 28.4721 84.2298 28.0472 85.0947 27.1972C85.9813 26.326 86.4246 25.2164 86.4246 23.865C86.4246 22.5154 85.9813 21.4148 85.0947 20.5648C84.2298 19.6935 83.1333 19.2579 81.8034 19.2579C80.4735 19.2579 79.3752 19.6935 78.5121 20.5648C77.6472 21.4148 77.2147 22.5154 77.2147 23.865C77.2147 25.2146 77.6472 26.326 78.5121 27.1972Z" fill="#9D81FF"/>
<path d="M108.302 25.5951H97.737C97.5525 25.5951 97.4132 25.773 97.4729 25.9454C98.1062 27.7591 99.6333 28.6677 102.054 28.6677C103.198 28.6677 104.148 28.4028 104.904 27.8729C105.541 27.4266 106.377 27.3733 107.055 27.7573C108.3 28.4633 108.394 30.2076 107.22 31.0202C105.803 32 104.059 32.4907 101.989 32.4907C99.2407 32.4907 97.035 31.6746 95.3721 30.0405C93.7093 28.4064 92.8788 26.3473 92.8788 23.865C92.8788 21.4254 93.6985 19.377 95.3396 17.7216C96.9572 16.0662 99.0633 15.2375 101.658 15.2375C104.119 15.2375 106.125 16.0662 107.676 17.7216C109.272 19.377 110.07 21.4254 110.07 23.865C110.066 24.8217 109.276 25.5951 108.302 25.5951ZM98.2238 22.3287H104.862C105.344 22.3287 105.669 21.8415 105.479 21.4077C105.204 20.7782 104.812 20.2679 104.3 19.8785C103.556 19.313 102.675 19.0285 101.656 19.0285C100.504 19.0285 99.5501 19.3184 98.7955 19.8945C98.2817 20.2892 97.8854 20.7906 97.6086 21.4041C97.4113 21.8362 97.7407 22.3287 98.2238 22.3287Z" fill="#9D81FF"/>
<path d="M125.562 17.622C125.562 16.5569 126.44 15.6945 127.523 15.6945H127.889C128.973 15.6945 129.85 16.5569 129.85 17.622V30.1045C129.85 31.1696 128.973 32.032 127.889 32.032H127.523C126.44 32.032 125.562 31.1696 125.562 30.1045C124.276 31.6941 122.47 32.4907 120.143 32.4907C117.926 32.4907 116.019 31.6621 114.423 30.0067C112.849 28.3299 112.062 26.2815 112.062 23.8632C112.062 21.4663 112.849 19.4304 114.423 17.7536C116.019 16.0768 117.926 15.2375 120.143 15.2375C122.47 15.2375 124.277 16.0324 125.562 17.622ZM117.648 27.1972C118.513 28.0472 119.609 28.4722 120.939 28.4722C122.269 28.4722 123.367 28.0472 124.23 27.1972C125.117 26.326 125.56 25.2164 125.56 23.865C125.56 22.5154 125.117 21.4148 124.23 20.5648C123.365 19.6935 122.269 19.2579 120.939 19.2579C119.609 19.2579 118.511 19.6935 117.648 20.5648C116.783 21.4148 116.35 22.5154 116.35 23.865C116.352 25.2146 116.785 26.326 117.648 27.1972Z" fill="#9D81FF"/>
<path d="M142.437 24.0642L146.497 28.9416C147.526 30.1774 146.631 32.032 145.006 32.032C144.421 32.032 143.87 31.7706 143.504 31.3243L138.537 25.236C138.369 25.0297 138.031 25.1471 138.031 25.4102V29.9249C138.031 31.0896 137.07 32.032 135.887 32.032C134.701 32.032 133.742 31.0878 133.742 29.9249V11.267C133.742 10.1023 134.703 9.15991 135.887 9.15991C137.072 9.15991 138.031 10.1041 138.031 11.267V22.0727C138.031 22.3394 138.373 22.455 138.539 22.2452L143.171 16.4218C143.537 15.963 144.096 15.6945 144.687 15.6945H144.82C146.441 15.6945 147.336 17.5456 146.312 18.7814L142.433 23.4667C142.292 23.641 142.292 23.8917 142.437 24.0642Z" fill="#9D81FF"/>
<path d="M153.344 32.0338C152.158 32.0338 151.199 31.0896 151.199 29.9267V10.2873C151.199 9.12258 152.16 8.18018 153.344 8.18018C154.529 8.18018 155.488 9.12436 155.488 10.2873V29.9249C155.488 31.0896 154.527 32.0338 153.344 32.0338Z" fill="#9D81FF"/>
<path d="M166.786 26.0042L169.806 17.0193C170.072 16.2298 170.822 15.6946 171.669 15.6946H172.035C173.397 15.6946 174.345 17.0246 173.88 18.2835L168.787 32.032C167.922 34.3845 166.775 36.0897 165.345 37.1459C164.468 37.7931 163.46 38.2235 162.32 38.4333C161.119 38.6538 160.009 37.7327 160.009 36.5307V36.3618C160.009 35.4602 160.654 34.717 161.538 34.4841C161.993 34.3649 162.392 34.18 162.736 33.9293C163.281 33.5328 163.735 32.9442 164.099 32.1636C164.281 31.7706 164.281 31.3137 164.11 30.9154L158.705 18.3778C158.157 17.1064 159.107 15.6964 160.512 15.6964H160.892C161.703 15.6964 162.43 16.1871 162.724 16.9304L166.301 26.0184C166.388 26.2371 166.71 26.23 166.786 26.0042Z" fill="#9D81FF"/>
</svg>
