<svg width="1440" height="1135" viewBox="0 0 1440 1135" fill="none" xmlns="http://www.w3.org/2000/svg">
<g opacity="0.6" clip-path="url(#clip0_508_384)">
<path opacity="0.5" d="M2061 512.741C2061 757.775 1495.12 956.436 797.029 956.436C98.9401 956.436 -467 757.82 -467 512.741C-467 420.039 -386.028 333.987 -247.482 262.798C-231.115 254.407 -225.006 242.936 -209.042 232.76C-194.519 223.476 -167.893 217.317 -156.886 201.205C-132.796 166.079 -113.777 119.839 -71.1877 107.029C-9.75272 88.5068 101.649 141.04 172.535 126.891C231.319 115.153 303.416 48.8729 367.56 40.5266C446.4 30.261 466.628 85.4271 556.879 77.0362C610.937 71.9927 623.616 52.8898 686.204 52.1311C741.472 51.4616 752.249 66.1011 796.971 69.0469C900.708 75.8311 927.506 0 1019.43 0C1105.53 0 1170.25 87.6588 1250.18 98.4153C1330.29 109.216 1430.92 71.6802 1502.21 87.7034C1577.13 104.53 1622.14 175.228 1685.19 197.054C1706.91 204.597 1727.89 212.407 1748.06 220.486C1768.75 228.743 1801.08 229.189 1819.99 237.982C1856.35 254.942 1876.81 280.963 1906.03 299.709C1918.36 307.609 1956.28 314.036 1972.19 327.337C2002.1 352.376 1998.76 372.327 2018.3 398.035C2046.13 434.634 2061 473.107 2061 512.741Z" fill="#9D81FF"/>
<path opacity="0.68" d="M2061 512.456C2061 757.647 1495.12 956.436 797.029 956.436C98.9401 956.436 -467 757.692 -467 512.456C-467 476.414 -454.782 441.355 -431.672 407.814C-415.074 383.697 -404.873 354.265 -377.556 331.845C-345.11 305.227 -293.472 285.978 -247.482 262.352C-231.115 253.955 -213.941 245.738 -196.017 237.743C-145.302 215.144 -112.971 143.82 -50.9016 125.062C10.5335 106.528 101.649 140.515 172.478 126.357C231.262 114.611 307.969 67.8955 372.17 59.5438C436.429 51.1474 488.182 81.1153 556.879 76.4705C593.071 74.0141 633.874 64.7245 671.047 63.3847C713.809 61.8662 753.056 68.4761 796.971 68.4761C866.014 68.4761 956.091 35.0693 1022.31 35.0693C1108.41 35.0693 1170.25 87.0999 1250.18 97.8633C1330.29 108.671 1428.38 90.0029 1499.67 106.036C1574.59 122.874 1622.19 174.726 1685.19 196.565C1706.91 204.113 1738.96 204.068 1759.07 212.152C1785.23 222.648 1798.95 241.405 1822.23 252.749C1852.78 267.622 1882.92 272.222 1908.1 288.345C1920.44 296.25 1930.06 315.275 1941.01 323.449C1952.02 331.622 1962.28 339.973 1971.84 348.414C2029.36 399.194 2061 454.53 2061 512.456Z" fill="#9D81FF"/>
<path opacity="0.3" d="M-467 512.886C-467 757.84 98.8954 956.436 797 956.436C1495.1 956.436 2061 757.84 2061 512.886C2061 473.22 2046.19 434.804 2018.35 398.217C2002.33 377.157 1990.4 349.583 1966.14 329.862C1943.83 311.747 1909.77 301.44 1881.07 284.663C1862.05 273.554 1856.29 262.577 1834.68 252.137C1824.94 247.452 1800.33 243.035 1790.07 238.439C1739.35 215.862 1718.14 176.152 1656.07 157.457C1594.64 138.94 1492.4 141.305 1421.51 127.161C1362.72 115.427 1286.01 68.7558 1221.81 60.4122C1157.55 52.024 1105.8 81.9628 1037.1 77.3225C1000.9 74.8685 960.1 65.5879 922.927 64.2494C880.164 62.7324 840.916 69.3359 797 69.3359C727.956 69.3359 651.074 52.604 584.912 52.604C480.712 52.5594 484.4 82.5429 343.777 98.6947C209.492 114.133 203.614 87.2278 114.802 109.715C77.5712 119.13 94.6305 119.799 -91.2349 197.301C-160.394 226.124 -196.357 238.394 -212.091 245.712C-249.033 262.845 -283.67 263.693 -313.294 282.656C-332.831 295.149 -349.487 325.311 -365.624 338.518C-395.074 362.656 -418.589 387.865 -435.533 413.967C-456.107 445.78 -467 478.887 -467 512.886Z" fill="#9D81FF"/>
</g>
<g opacity="0.6" clip-path="url(#clip1_508_384)">
<path opacity="0.5" d="M-467 622.259C-467 377.225 98.8824 178.565 796.971 178.564C1495.06 178.564 2061 377.18 2061 622.259C2061 714.961 1980.03 801.013 1841.48 872.202C1825.11 880.593 1819.01 892.064 1803.04 902.24C1788.52 911.524 1761.89 917.683 1750.89 933.795C1726.8 968.921 1707.78 1015.16 1665.19 1027.97C1603.75 1046.49 1492.35 993.96 1421.46 1008.11C1362.68 1019.85 1290.58 1086.13 1226.44 1094.47C1147.6 1104.74 1127.37 1049.57 1037.12 1057.96C983.063 1063.01 970.384 1082.11 907.796 1082.87C852.528 1083.54 841.751 1068.9 797.029 1065.95C693.292 1059.17 666.494 1135 574.572 1135C488.47 1135 423.75 1047.34 343.816 1036.58C263.708 1025.78 163.084 1063.32 91.7937 1047.3C16.8729 1030.47 -28.1372 959.772 -91.1858 937.946C-112.913 930.404 -133.891 922.593 -154.062 914.514C-174.751 906.257 -207.083 905.811 -225.986 897.018C-262.351 880.058 -282.81 854.037 -312.029 835.291C-324.362 827.391 -362.284 820.964 -378.19 807.663C-408.101 782.624 -404.758 762.674 -424.295 736.965C-452.131 700.366 -467 661.893 -467 622.259Z" fill="#9D81FF"/>
<path opacity="0.68" d="M-467 622.544C-467 377.353 98.8824 178.565 796.971 178.564C1495.06 178.564 2061 377.308 2061 622.544C2061 658.586 2048.78 693.645 2025.67 727.186C2009.07 751.303 1998.87 780.735 1971.56 803.155C1939.11 829.773 1887.47 849.022 1841.48 872.648C1825.11 881.045 1807.94 889.262 1790.02 897.257C1739.3 919.856 1706.97 991.18 1644.9 1009.94C1583.47 1028.47 1492.35 994.485 1421.52 1008.64C1362.74 1020.39 1286.03 1067.1 1221.83 1075.46C1157.57 1083.85 1105.82 1053.88 1037.12 1058.53C1000.93 1060.99 960.126 1070.28 922.953 1071.62C880.191 1073.13 840.944 1066.52 797.029 1066.52C727.986 1066.52 637.909 1099.93 571.69 1099.93C485.589 1099.93 423.75 1047.9 343.816 1037.14C263.708 1026.33 165.62 1045 94.3296 1028.96C19.4088 1012.13 -28.1948 960.274 -91.1858 938.435C-112.913 930.887 -144.956 930.932 -165.069 922.848C-191.234 912.353 -204.95 893.595 -228.233 882.251C-258.778 867.379 -288.919 862.778 -314.104 846.656C-326.437 838.751 -336.062 819.725 -347.011 811.552C-358.019 803.379 -368.277 795.027 -377.844 786.586C-435.36 735.806 -467 680.47 -467 622.544Z" fill="#9D81FF"/>
<path opacity="0.3" d="M2061 622.114C2061 377.16 1495.1 178.564 797 178.564C98.8953 178.565 -467 377.16 -467 622.114C-467 661.78 -452.188 700.196 -424.352 736.783C-408.33 757.843 -396.4 785.417 -372.136 805.138C-349.833 823.253 -315.772 833.56 -287.071 850.337C-268.052 861.447 -262.289 872.423 -240.677 882.863C-230.937 887.548 -206.327 891.966 -196.069 896.561C-145.352 919.138 -124.143 958.848 -62.0728 977.543C-0.636238 996.06 101.604 993.695 172.492 1007.84C231.278 1019.57 307.987 1066.24 372.19 1074.59C436.45 1082.98 488.204 1053.04 556.902 1057.68C593.095 1060.13 633.9 1069.41 671.073 1070.75C713.836 1072.27 753.084 1065.66 797 1065.66C866.044 1065.66 942.926 1082.4 1009.09 1082.4C1113.29 1082.44 1109.6 1052.46 1250.22 1036.31C1384.51 1020.87 1390.39 1047.77 1479.2 1025.28C1516.43 1015.87 1499.37 1015.2 1685.23 937.699C1754.39 908.876 1790.36 896.606 1806.09 889.288C1843.03 872.155 1877.67 871.307 1907.29 852.344C1926.83 839.851 1943.49 809.689 1959.62 796.482C1989.07 772.344 2012.59 747.134 2029.53 721.033C2050.11 689.22 2061 656.113 2061 622.114Z" fill="#9D81FF"/>
</g>
<rect y="162" width="1440" height="820" fill="#CBBCFF"/>
<defs>
<clipPath id="clip0_508_384">
<rect width="2528" height="322" fill="white" transform="translate(-467)"/>
</clipPath>
<clipPath id="clip1_508_384">
<rect width="2528" height="322" fill="white" transform="translate(2061 1135) rotate(180)"/>
</clipPath>
</defs>
</svg>
